<?xml version="1.0" encoding="UTF-8"?>
<!-- Generator: visioncortex VTracer 0.6.12 -->
<svg version="1.1" xmlns="http://www.w3.org/2000/svg" width="849" height="1079">
<path d="M0 0 C9.62 7.58 15.29 19.02 17 31 C18.41 45.37 14.12 57.85 5.33 69.15 C-0.23 75.34 -7.33 78.98 -15 82 C-16.32 82 -17.64 82 -19 82 C-19 84.64 -19 87.28 -19 90 C-18.24 90.24 -17.48 90.48 -16.7 90.73 C-13.6 92.19 -12.62 93.39 -10.81 96.25 C-10.32 97 -9.84 97.75 -9.33 98.52 C-8 101 -8 101 -7.25 104.14 C-6 107 -6 107 -2.95 108.43 C-1.68 108.76 -0.42 109.1 0.88 109.44 C12.92 112.96 22.12 119.16 31 128 C31.63 128.59 32.25 129.18 32.89 129.79 C40.66 137.75 47 149.78 47 161 C47.41 160.97 47.41 160.97 49.49 160.82 C58.24 160.47 64.99 161.48 71.66 167.49 C76.76 173.22 77.29 178.5 77.2 185.8 C77.19 186.22 77.19 186.22 77.19 188.34 C77.18 190.99 77.15 193.65 77.12 196.31 C77.11 198.12 77.11 199.93 77.1 201.74 C77.08 206.16 77.04 210.58 77 215 C77.54 215.07 77.54 215.07 80.3 215.45 C120.13 221.39 159.09 254.2 182.41 285.5 C205.28 317.03 217.25 355.49 217.11 394.35 C217.11 395.42 217.11 396.5 217.11 397.6 C217.11 401.11 217.11 404.63 217.1 408.14 C217.1 410.59 217.09 413.04 217.09 415.49 C217.09 421.91 217.08 428.33 217.07 434.75 C217.06 441.31 217.05 447.87 217.05 454.44 C217.04 467.29 217.02 480.15 217 493 C217.74 493.2 218.47 493.39 219.23 493.59 C220.21 493.85 221.18 494.12 222.19 494.39 C223.15 494.64 224.11 494.9 225.1 495.16 C229.57 496.45 233.83 498.15 238.12 499.94 C239.06 500.32 239.99 500.71 240.95 501.11 C260.28 509.24 280.38 517.97 297 531 C297.11 530.74 297.11 530.74 297.65 529.45 C305.42 511.15 314.44 494.65 328 480 C328.77 479.16 329.54 478.32 330.34 477.45 C342.6 464.63 342.6 464.63 349.61 463.63 C352 464 352 464 353.77 465.14 C355.44 467.67 355.51 469.68 355.69 472.69 C355.75 473.68 355.82 474.68 355.89 475.7 C355.92 476.46 355.96 477.22 356 478 C356.51 477.71 357.02 477.42 357.54 477.12 C365.19 473 365.19 473 370 474 C372.86 475.78 375.41 477.85 378 480 C379.33 481.01 380.66 482.01 382 483 C382.72 482.48 383.44 481.97 384.19 481.44 C387 480 387 480 389.69 480.12 C392 481 392 481 394 484 C394.15 491.56 392.37 499.31 391.04 506.73 C390.84 507.85 390.64 508.96 390.44 510.11 C389.79 513.78 389.14 517.45 388.48 521.12 C388.03 523.71 387.57 526.29 387.11 528.88 C386.03 534.99 384.95 541.1 383.86 547.21 C382.64 554.06 381.43 560.9 380.21 567.75 C378.73 576.16 377.24 584.56 375.74 592.97 C375.64 593.56 375.64 593.56 375.11 596.55 C374.69 598.87 374.28 601.2 373.86 603.53 C372.89 608.96 371.93 614.4 371.01 619.84 C370.68 621.79 370.35 623.74 370.02 625.7 C369.6 628.15 369.19 630.6 368.78 633.05 C368.59 634.15 368.4 635.25 368.21 636.38 C368.05 637.35 367.89 638.32 367.72 639.31 C366.13 645.27 363.07 647.99 358.04 651.33 C357.45 651.72 356.87 652.11 356.26 652.52 C354.39 653.77 352.51 655.01 350.62 656.25 C348.79 657.47 346.95 658.7 345.12 659.92 C343.9 660.73 342.68 661.54 341.46 662.35 C338.37 664.4 335.3 666.48 332.26 668.62 C331.66 669.03 331.06 669.45 330.45 669.88 C328.8 671.04 327.16 672.21 325.52 673.37 C323 675 323 675 321 675 C320.96 675.64 320.96 675.64 320.75 678.88 C319.19 692.18 311.07 703.27 300.99 711.74 C290.16 719.92 277.54 724.23 264.75 728.31 C263.18 728.83 261.6 729.34 260.03 729.86 C233.07 738.68 233.07 738.68 228 737 C224.29 734.36 221.18 731.24 218 728 C217.34 727.4 216.69 726.8 216.01 726.18 C209.5 720.14 204.46 712.85 199.24 705.7 C197.85 703.79 196.43 701.89 195 700 C194.45 700.94 193.91 701.89 193.35 702.86 C167.93 746.35 127.53 778.05 79 792 C78.34 792 77.68 792 77 792 C77.01 792.51 77.01 792.51 77.06 795.09 C77.14 798.9 77.18 802.7 77.22 806.51 C77.24 808.16 77.27 809.8 77.3 811.44 C77.35 813.82 77.37 816.19 77.39 818.56 C77.41 819.29 77.43 820.01 77.45 820.76 C77.46 827.1 75.41 832.21 71.25 837.02 C63.44 843.27 56.06 844.16 46.14 844.11 C45.76 844.11 45.76 844.11 43.86 844.11 C41.4 844.11 38.93 844.11 36.47 844.1 C34.76 844.1 33.04 844.09 31.32 844.09 C26.82 844.09 22.32 844.08 17.83 844.07 C13.23 844.06 8.63 844.05 4.03 844.05 C-4.98 844.04 -13.99 844.02 -23 844 C-22.97 847.09 -22.89 850.18 -22.79 853.27 C-22.78 854.15 -22.78 855.03 -22.77 855.93 C-22.54 862.43 -22.54 862.43 -19.78 865.35 C-17.31 866.62 -17.31 866.62 -14.59 867.75 C-10.21 869.87 -8.17 873.79 -6 878 C-4.11 883.66 -3.8 890.84 -5.93 896.46 C-7.06 898.5 -7.06 898.5 -8.22 900.22 C-10.07 904.46 -7.13 909.62 -5.68 913.74 C1.36 933.77 9.6 960.45 6 982 C3.15 985.1 -0.16 985.75 -4.19 986.62 C-5.25 986.86 -6.32 987.1 -7.42 987.35 C-21.48 989.9 -35.7 989.74 -49.81 987.69 C-50.64 987.57 -51.47 987.45 -52.33 987.33 C-57.02 986.58 -60.88 985.52 -65 983 C-72.47 968.05 -60.92 934.11 -56 919 C-54.72 915.54 -53.32 912.13 -51.82 908.76 C-50.46 904.19 -51.54 900.96 -53.56 896.75 C-56.34 890.5 -55.67 884.14 -53.44 877.81 C-50.7 871.63 -46.33 866.61 -40 864 C-39.01 864 -38.02 864 -37 864 C-37 857.4 -37 850.8 -37 844 C-39.29 844.01 -41.57 844.02 -43.93 844.03 C-51.5 844.06 -59.08 844.09 -66.65 844.1 C-71.24 844.11 -75.83 844.13 -80.42 844.15 C-84.86 844.17 -89.29 844.18 -93.73 844.19 C-95.41 844.19 -97.1 844.2 -98.79 844.21 C-121.24 844.35 -121.24 844.35 -129 838 C-137.76 829.03 -137.51 819.23 -137.69 807.5 C-137.72 805.99 -137.76 804.49 -137.79 802.98 C-137.88 799.32 -137.94 795.66 -138 792 C-138.62 791.79 -138.62 791.79 -141.74 790.75 C-164.25 783.12 -185.14 773.68 -204 759 C-204.86 758.33 -205.72 757.66 -206.61 756.97 C-209.1 755.01 -211.56 753.02 -214 751 C-214.71 750.41 -215.42 749.83 -216.16 749.22 C-220.22 745.78 -223.8 742.14 -227.24 738.07 C-228.39 736.71 -229.58 735.39 -230.79 734.09 C-243.25 720.76 -251.96 705.26 -260 689 C-260.7 690.11 -261.4 691.22 -262.12 692.37 C-267.36 700.6 -272.6 708.61 -279 716 C-279.71 716.82 -280.41 717.63 -281.14 718.47 C-297.11 736.54 -297.11 736.54 -303.12 737.5 C-308.73 736.78 -311.12 733.91 -315 730 C-315.82 729.2 -316.64 728.41 -317.48 727.59 C-321.16 723.99 -324.72 720.35 -328.06 716.43 C-332.35 711.52 -336.95 706.94 -341.58 702.36 C-342.48 701.46 -343.37 700.57 -344.3 699.65 C-347.13 696.83 -349.97 694.01 -352.81 691.19 C-356.57 687.45 -360.33 683.72 -364.08 679.98 C-364.95 679.12 -365.81 678.27 -366.7 677.39 C-367.5 676.59 -368.3 675.8 -369.12 674.98 C-369.47 674.63 -369.47 674.63 -371.25 672.86 C-373.4 670.57 -374.86 668.76 -375.44 665.62 C-374.83 661.96 -372.78 660.27 -370 658 C-366.97 656.01 -363.83 654.23 -360.69 652.44 C-328.47 633.57 -303.13 608.09 -285.62 575.12 C-285.21 574.34 -284.79 573.56 -284.36 572.75 C-283.97 571.99 -283.57 571.23 -283.16 570.45 C-282.82 569.78 -282.47 569.12 -282.12 568.43 C-281.75 567.63 -281.38 566.83 -281 566 C-280.49 564.96 -279.98 563.91 -279.46 562.84 C-277.02 556.22 -277.58 549.08 -277.6 542.13 C-277.59 540.52 -277.59 538.91 -277.58 537.3 C-277.56 533.84 -277.56 530.39 -277.56 526.93 C-277.56 521.44 -277.54 515.95 -277.52 510.46 C-277.48 499.78 -277.46 489.09 -277.44 478.41 C-277.42 464.86 -277.39 451.31 -277.34 437.77 C-277.32 433.22 -277.31 428.67 -277.3 424.11 C-277.29 376.47 -277.29 376.47 -272.81 355.31 C-272.6 354.28 -272.39 353.25 -272.17 352.19 C-268.68 336.18 -262.91 321.32 -255 307 C-254.61 306.3 -254.23 305.59 -253.83 304.87 C-245.95 290.65 -236.65 278.24 -225.42 266.49 C-224.47 265.49 -223.53 264.49 -222.59 263.49 C-200.9 240.33 -170.46 223.38 -140 215 C-139.01 215 -138.02 215 -137 215 C-137.02 213.96 -137.04 212.91 -137.06 211.84 C-137.14 207.93 -137.18 204.02 -137.22 200.11 C-137.24 198.43 -137.27 196.74 -137.3 195.06 C-137.69 175.59 -137.69 175.59 -131.04 167.66 C-130.38 167.13 -129.73 166.61 -129.06 166.06 C-128.41 165.52 -127.77 164.97 -127.1 164.41 C-122.46 161.29 -118.74 160.76 -113.19 160.88 C-112.03 160.89 -110.86 160.91 -109.67 160.93 C-108.79 160.95 -107.91 160.98 -107 161 C-106.97 160.46 -106.97 160.46 -106.81 157.75 C-104.99 143.76 -95.67 130.84 -85 122 C-76.51 115.78 -66.5 109.03 -55.81 107.73 C-52.84 106.53 -52.36 104.1 -51.12 101.25 C-48.7 96.09 -46.8 93.06 -42 90 C-41.34 90 -40.68 90 -40 90 C-40.02 89.42 -40.04 88.84 -40.06 88.24 C-40.15 85.6 -40.2 82.96 -40.25 80.31 C-40.28 79.4 -40.32 78.49 -40.35 77.55 C-40.41 73.21 -40.43 70.71 -38.15 66.93 C-35.01 64.11 -31.95 63.38 -27.86 62.58 C-20.02 61.02 -14.36 58.41 -9.29 52.04 C-5.43 45.94 -4.37 39.46 -5.44 32.38 C-7.27 24.62 -11.39 19.42 -18 15 C-24.6 11.8 -31.03 10.83 -38.06 13.25 C-45.36 16.28 -49.73 20.06 -53.06 27.32 C-54.09 30.25 -54.42 32.92 -54.75 36 C-55.81 42.6 -55.81 42.6 -58.62 45.25 C-62.67 47.35 -65.55 48.12 -70 47 C-73.52 45 -75.7 42.91 -77 39 C-77.9 26.66 -73.58 15.34 -66.17 5.59 C-48.73 -13.85 -20.55 -14.78 0 0 Z M-81.31 140.25 C-86.41 146.28 -90.09 153.35 -92 161 C-51.08 161 -10.16 161 32 161 C29.12 153.08 26.82 147.51 22 141 C21.42 140.13 20.85 139.27 20.25 138.38 C13 130.72 1.71 123.45 -9.03 122.73 C-12.46 123.2 -13.93 125.4 -16 128 C-19.92 131.53 -24.14 132.95 -29.43 133.04 C-35.34 132.66 -39.06 131.19 -44 128 C-44.66 128 -45.32 128 -46 128 C-46.31 127.36 -46.62 126.72 -46.94 126.06 C-48 124 -48 124 -49 123 C-61.15 121.97 -73.42 131.98 -81.31 140.25 Z " fill="#120A0A" transform="translate(415,50)"/>
<path d="M0 0 C-1.07 0.58 -2.14 1.15 -3.25 1.75 C-8.18 4.59 -11.4 7.39 -13 13 C-13.57 16.25 -13.59 18.12 -11.73 20.9 C-6.74 26.85 -6.74 26.85 -1.79 27.29 C2.63 26.95 4.82 25.76 8.56 23.44 C9.79 22.7 11.02 21.96 12.25 21.23 C12.87 20.86 13.49 20.48 14.13 20.1 C23.31 14.7 32.7 10.69 43 8 C43.82 7.75 44.65 7.5 45.5 7.24 C53.42 4.98 61.01 4.5 69.18 4.55 C71.3 4.56 73.42 4.53 75.54 4.5 C85.3 4.45 93.69 6.01 103 9 C103.81 9.25 104.62 9.5 105.45 9.76 C116.54 13.37 126.61 18.55 136.18 25.21 C139.8 27.5 141.78 27.52 146 27 C149.92 25.76 152.3 24.81 155 21.69 C156.25 18.33 155.88 16.44 155 13 C154.88 12.26 154.75 11.51 154.62 10.75 C154 9 154 9 151 7 C151 6.34 151 5.68 151 5 C150.34 5 149.68 5 149 5 C149 4.34 149 3.68 149 3 C148.62 2.94 148.62 2.94 146.69 2.62 C144 2 144 2 141 0 C141 -0.66 141 -1.32 141 -2 C144.52 -2.1 147.57 -1.72 151 -1 C156.6 -0.27 162.2 0.38 167.81 1 C168.2 1.04 168.2 1.04 170.19 1.27 C175.4 1.85 180.6 2.32 185.84 2.66 C188.3 3.05 189.87 3.7 192 5 C193.14 6.72 193.14 6.72 194.04 8.78 C194.37 9.54 194.7 10.29 195.04 11.07 C195.38 11.87 195.72 12.67 196.06 13.5 C196.41 14.32 196.77 15.13 197.13 15.98 C199.2 20.86 201.06 25.73 202.43 30.87 C203.01 33.03 203.74 35.09 204.5 37.19 C206.35 42.61 207.31 48.22 208.35 53.84 C209 57 209 57 210 59 C210.39 60.91 210.74 62.83 211.06 64.75 C211.24 65.78 211.42 66.8 211.6 67.86 C211.99 70.95 212.07 73.89 212 77 C210.89 76.84 209.77 76.67 208.62 76.5 C203.74 75.89 198.92 75.89 194 75.94 C193.13 75.94 192.26 75.95 191.36 75.95 C189.24 75.96 187.12 75.98 185 76 C184.67 77.65 184.34 79.3 184 81 C184.68 81.13 185.35 81.27 186.05 81.4 C186.94 81.58 187.83 81.76 188.75 81.94 C189.63 82.11 190.51 82.29 191.42 82.46 C192.98 82.79 194.53 83.14 196.06 83.57 C198.22 84.05 200.1 84.06 202.31 84 C206.34 83.95 210.04 84.26 214 85 C215 86 215 86 215.12 88.01 C215.12 88.9 215.12 89.8 215.12 90.71 C215.12 91.22 215.12 91.22 215.12 93.8 C215.12 94.93 215.12 96.06 215.11 97.22 C215.11 98.4 215.11 99.58 215.11 100.8 C215.11 104.04 215.11 107.29 215.1 110.53 C215.1 113.92 215.09 117.31 215.09 120.7 C215.09 127.12 215.08 133.54 215.07 139.96 C215.06 147.27 215.06 154.58 215.05 161.89 C215.04 176.93 215.02 191.96 215 207 C209.88 207.16 209.88 207.16 184 208 C183.67 209.65 183.34 211.3 183 213 C190.56 220.56 204.32 214.66 215 215 C215 254.27 215 293.54 215 334 C206.75 334.99 198.5 335.98 190 337 C189.67 337.33 189.34 337.66 189 338 C189 339.98 189 341.96 189 344 C192.96 343.84 192.96 343.84 213 343 C213 345.64 213 348.28 213 351 C212.34 351.66 211.68 352.32 211 353 C210.5 355.06 210.5 355.06 210.15 357.57 C210.02 358.47 209.89 359.36 209.76 360.29 C209.63 361.22 209.51 362.16 209.38 363.12 C209.24 364.07 209.11 365.01 208.97 365.99 C208.64 368.32 208.32 370.66 208 373 C207.34 373 206.68 373 206 373 C206.02 373.51 206.02 373.51 206.12 376.06 C205.99 380.18 205.27 383.12 204 387 C203.34 387 202.68 387 202 387 C202.02 387.44 202.02 387.44 202.14 389.68 C201.95 394.14 200.36 397.06 198.35 400.98 C197 404 197 404 196.43 407.24 C195.57 411.27 194.97 413.07 192 416 C184.85 418.46 177.17 419.06 169.67 419.71 C167.34 419.96 165.26 420.43 163 421 C160.58 421.07 158.17 421.08 155.75 421.06 C154.49 421.05 153.22 421.04 151.92 421.04 C150.96 421.02 149.99 421.01 149 421 C149 421.99 149 422.98 149 424 C145.58 424.32 142.17 424.63 138.75 424.94 C137.82 425.02 136.89 425.11 135.93 425.2 C114 427.16 92.06 427.24 70.06 427.25 C69.24 427.25 68.42 427.25 67.57 427.25 C44.52 427.27 21.66 427.06 -1.26 424.42 C-5.18 423.98 -9.1 423.6 -13.03 423.24 C-17.94 422.78 -22.85 422.26 -27.75 421.67 C-31.61 421.21 -35.36 420.94 -39.25 420.95 C-43.76 420.84 -47.04 420.37 -51 418 C-55.21 412.14 -57.11 405.07 -59.08 398.21 C-59.96 395.13 -60.94 392.1 -61.95 389.07 C-64.97 379.87 -67.48 370.6 -69.44 361.12 C-69.52 360.73 -69.52 360.73 -69.93 358.73 C-70.95 353.42 -71.13 348.41 -71 343 C-69.1 342.97 -67.21 342.95 -65.31 342.94 C-64.26 342.93 -63.2 342.91 -62.11 342.9 C-59.26 342.99 -56.78 343.4 -54 344 C-51.67 344.08 -49.33 344.09 -47 344 C-46 343 -46 343 -45.94 340.44 C-45.96 339.63 -45.98 338.83 -46 338 C-48.53 336.73 -50.58 336.71 -53.41 336.5 C-54.48 336.42 -55.55 336.34 -56.66 336.25 C-58.93 336.08 -61.21 335.92 -63.48 335.75 C-64.55 335.67 -65.62 335.59 -66.72 335.5 C-67.71 335.43 -68.7 335.36 -69.72 335.28 C-72 335 -72 335 -73 334 C-73.1 332.46 -73.12 330.91 -73.12 329.36 C-73.12 328.36 -73.12 327.36 -73.12 326.32 C-73.12 325.21 -73.12 324.11 -73.11 322.96 C-73.11 321.8 -73.11 320.64 -73.11 319.45 C-73.11 315.59 -73.11 311.73 -73.1 307.87 C-73.1 305.2 -73.09 302.54 -73.09 299.87 C-73.09 293.56 -73.08 287.24 -73.07 280.93 C-73.06 273.74 -73.06 266.55 -73.05 259.37 C-73.04 244.58 -73.02 229.79 -73 215 C-62.44 214.67 -51.88 214.34 -41 214 C-41 212.02 -41 210.04 -41 208 C-46.28 207.84 -46.28 207.84 -73 207 C-73.02 193.13 -73.04 179.25 -73.05 165.38 C-73.06 158.93 -73.06 152.49 -73.08 146.05 C-73.09 139.82 -73.09 133.6 -73.09 127.37 C-73.1 125.01 -73.1 122.64 -73.11 120.27 C-73.11 116.94 -73.11 113.61 -73.11 110.28 C-73.12 109.31 -73.12 108.34 -73.12 107.35 C-73.11 100.52 -72.65 93.79 -72 87 C-61.75 84.87 -51.41 83.95 -41 83 C-40.88 80.62 -40.88 80.62 -41 78 C-43 76 -43 76 -45.71 75.77 C-46.83 75.78 -47.95 75.79 -49.1 75.8 C-50.31 75.81 -51.52 75.82 -52.77 75.82 C-54.04 75.84 -55.32 75.86 -56.62 75.88 C-57.9 75.88 -59.18 75.89 -60.5 75.9 C-63.67 75.93 -66.83 75.96 -70 76 C-69.69 73.35 -69.38 70.71 -69.06 68.06 C-69.02 67.69 -69.02 67.69 -68.8 65.78 C-68.11 60.11 -68.11 60.11 -67 59 C-66.46 56.5 -65.97 54.01 -65.5 51.5 C-64.14 44.14 -64.14 44.14 -63 43 C-62.88 41.95 -62.75 40.9 -62.62 39.81 C-61.99 35.93 -60.8 33.46 -59 30 C-58.69 28.89 -58.38 27.77 -58.06 26.62 C-57.03 23.11 -55.7 20.21 -54 16.98 C-53.05 15.1 -52.27 13.21 -51.5 11.25 C-49.96 7.91 -48.81 6.31 -46 4 C-43.33 3.24 -43.33 3.24 -40.25 2.88 C-39.68 2.8 -39.68 2.8 -36.81 2.43 C-35.55 2.29 -34.29 2.15 -33 2 C-30.82 1.74 -28.65 1.47 -26.47 1.2 C-25.05 1.03 -23.63 0.86 -22.21 0.7 C-17.22 0.11 -17.22 0.11 -15 -1 C-12.84 -1.28 -10.67 -1.5 -8.5 -1.69 C-7.33 -1.79 -6.17 -1.9 -4.97 -2.01 C-2 -2 -2 -2 0 0 Z " fill="#F3CBBB" transform="translate(314,343)"/>
<path d="M0 0 C0.62 0.19 1.23 0.39 1.87 0.59 C27.54 8.76 46.5 25.59 59.18 49.25 C61.22 53.29 62.85 57.44 64.38 61.69 C64.61 62.35 64.85 63.02 65.1 63.7 C71.27 81.99 71.17 102.77 65 121 C64.63 122.12 64.25 123.25 63.87 124.41 C54.65 150.06 36.64 169.26 12.08 180.97 C-7.78 189.91 -33.44 191.82 -54.38 185.39 C-66.47 180.76 -77.04 175.44 -87 167 C-87.5 166.58 -87.5 166.58 -90.05 164.48 C-106.9 150.11 -118.83 128.96 -122 107 C-123.81 79.92 -120.01 54.54 -102.5 32.83 C-76.99 3.89 -38.64 -12.7 0 0 Z " fill="#FCFCFC" transform="translate(412,392)"/>
<path d="M0 0 C5.37 0.61 10.2 1.87 15.32 3.58 C15.71 3.71 15.71 3.71 17.69 4.36 C20.17 5.17 22.65 5.99 25.12 6.81 C28.38 7.88 31.63 8.95 34.88 10.02 C35.28 10.15 35.28 10.15 37.28 10.81 C42.87 12.64 48.48 14.4 54.12 16.12 C57.72 17.22 61.31 18.38 64.9 19.54 C74.29 22.56 83.71 25.41 93.21 28.05 C93.62 28.16 93.62 28.16 95.69 28.74 C96.4 28.93 97.12 29.13 97.85 29.33 C100.3 30.09 102.63 31.04 105 32 C103.78 43.02 102.32 53.98 100.63 64.94 C100.24 67.46 99.85 69.98 99.47 72.5 C98.79 76.96 98.1 81.41 97.42 85.86 C96.32 92.98 95.23 100.1 94.14 107.22 C93.76 109.67 93.38 112.13 93 114.58 C92.77 116.12 92.53 117.66 92.3 119.2 C92.24 119.57 92.24 119.57 91.95 121.43 C91.39 125.13 90.89 128.83 90.5 132.55 C90.46 132.91 90.46 132.91 90.26 134.76 C90.05 136.75 89.86 138.75 89.67 140.74 C88.79 145.01 87.1 146.9 83.75 149.54 C80.94 151.88 79.65 154.77 78 158 C77.67 158 77.34 158 77 158 C77.6 149.33 78.25 140.66 79 132 C53.89 123 53.89 123 49 123 C48.28 127.46 47.57 131.93 46.86 136.4 C46.62 137.92 46.38 139.43 46.14 140.95 C45.79 143.14 45.44 145.32 45.09 147.51 C44.98 148.19 44.88 148.86 44.76 149.55 C44.21 153.07 43.88 156.44 44 160 C48.08 161.31 52.17 162.63 56.25 163.94 C57.41 164.31 58.57 164.68 59.76 165.07 C60.88 165.43 61.99 165.78 63.14 166.15 C64.17 166.48 65.19 166.81 66.25 167.15 C68.48 167.84 70.74 168.43 73 169 C72.67 172.3 72.34 175.6 72 179 C67.1 178.4 62.58 177.4 57.87 175.96 C57.21 175.76 56.55 175.56 55.86 175.35 C53.72 174.7 51.58 174.04 49.44 173.38 C47.95 172.92 46.45 172.46 44.96 172.01 C35.84 169.21 26.74 166.34 17.65 163.41 C9.75 160.88 1.78 158.6 -6.2 156.36 C-11.15 154.97 -16.08 153.49 -21 152 C-21.95 148.21 -21.96 145.26 -21.37 141.4 C-21.21 140.28 -21.05 139.17 -20.88 138.02 C-20.69 136.8 -20.5 135.59 -20.31 134.34 C-20.12 133.05 -19.93 131.76 -19.73 130.44 C-19.2 126.91 -18.67 123.39 -18.13 119.86 C-17.57 116.16 -17.01 112.46 -16.46 108.76 C-15.4 101.74 -14.34 94.71 -13.28 87.69 C-12.07 79.75 -10.88 71.81 -9.69 63.87 C-7.82 51.48 -5.95 39.09 -4.08 26.7 C-3.9 25.5 -3.72 24.3 -3.53 23.07 C-2.36 15.38 -1.19 7.69 0 0 Z " fill="#F5F5F5" transform="translate(589,560)"/>
<path d="M0 0 C1.79 -0.01 3.58 -0.01 5.38 -0.02 C9.11 -0.04 12.84 -0.03 16.57 -0.01 C21.3 0.02 26.03 -0.01 30.75 -0.05 C34.45 -0.08 38.14 -0.08 41.84 -0.07 C43.58 -0.06 45.32 -0.07 47.06 -0.09 C71.48 -0.32 91.94 10.22 109.19 27.1 C110.1 28 111.01 28.9 111.95 29.83 C112.61 30.45 113.27 31.06 113.96 31.69 C124.22 41.34 131.89 53.76 138.95 65.83 C138.95 66.16 138.95 66.49 138.95 66.83 C134.1 66.74 129.24 66.63 124.39 66.51 C122.75 66.48 121.11 66.44 119.46 66.41 C106.72 66.16 94.52 64.96 81.95 62.83 C82.28 64.81 82.61 66.79 82.95 68.83 C79.02 67.56 75.15 66.16 71.29 64.67 C64.27 61.98 57.29 59.5 49.95 57.83 C49.29 57.67 48.63 57.5 47.96 57.33 C40.11 55.51 32.27 55.39 24.26 55.39 C23.54 55.39 22.81 55.39 22.07 55.39 C5.06 55.42 -11.04 58.1 -26.72 64.91 C-29.05 65.83 -29.05 65.83 -32.05 65.83 C-31.39 64.84 -30.73 63.85 -30.05 62.83 C-36.28 63.28 -42.49 63.73 -48.68 64.58 C-52.91 65.03 -57.17 65.22 -61.42 65.44 C-64.75 65.62 -67.85 65.89 -71.05 66.83 C-78.47 68.21 -85.57 67.52 -93.05 66.83 C-82.01 45.36 -65.41 25.92 -45.05 12.83 C-44.3 12.32 -43.55 11.81 -42.77 11.29 C-29.04 2.41 -16.04 -0.1 0 0 Z " fill="#BC3348" transform="translate(362.05078125,269.16796875)"/>
<path d="M0 0 C9 0.55 17.94 1.37 26.89 2.4 C27.28 2.45 27.28 2.45 29.21 2.67 C31.37 2.92 33.52 3.2 35.68 3.47 C46.56 4.85 57.42 5.63 68.38 6.12 C69.28 6.17 70.19 6.21 71.13 6.25 C120.01 8.41 173.35 10.47 221.59 0.46 C224.74 -0.14 227.79 -0.06 231 0 C222.1 24 196.63 48.31 173.76 59.05 C165.27 62.87 157.49 66.29 148.05 66.32 C147.66 66.33 147.66 66.33 145.7 66.35 C143.14 66.38 140.59 66.4 138.04 66.41 C137.16 66.41 136.28 66.42 135.37 66.42 C130.71 66.45 126.05 66.47 121.39 66.48 C116.62 66.49 111.85 66.54 107.08 66.6 C103.37 66.63 99.67 66.64 95.96 66.65 C94.21 66.65 92.45 66.67 90.69 66.7 C68.01 67.01 49.93 57.91 33 43 C32.57 42.64 32.57 42.64 30.41 40.82 C19.83 31.68 11.92 20.42 4 9 C3.62 8.47 3.62 8.47 1.71 5.77 C0 3 0 3 0 0 Z " fill="#BC3049" transform="translate(270,771)"/>
<path d="M0 0 C0.48 -0.01 0.48 -0.01 2.92 -0.04 C15.18 -0.06 24.85 3.99 35.25 10.19 C32.77 11.43 31.38 11.12 28.62 10.94 C22.96 10.88 19.53 12.56 15.25 16.19 C9.89 21.97 8.79 26.37 8.94 34.14 C9.54 40 11.82 44.17 16.19 48.06 C22.09 52.16 27.13 53.11 34.25 52.19 C36.5 51.35 38.48 50.37 40.56 49.16 C42.25 48.19 42.25 48.19 45.25 47.19 C46.25 45.62 46.25 45.62 47.25 43.19 C47.5 42.58 47.75 41.98 48 41.36 C49.6 37.32 50.71 33.53 51.25 29.19 C57.53 34.72 59.83 45.18 60.51 53.23 C61.05 69.32 56.52 85.32 45.81 97.56 C44.31 99.12 42.79 100.67 41.25 102.19 C40.97 102.47 40.97 102.47 39.54 103.93 C29.17 113.69 14.85 117.78 0.94 117.69 C-0.07 117.68 -1.08 117.67 -2.12 117.67 C-18.67 117.26 -32.12 108.87 -43.43 97.02 C-55.67 82.1 -58.32 66.09 -56.75 47.19 C-54.17 32.78 -44.72 19.14 -33.06 10.5 C-22.28 3.33 -12.74 0.01 0 0 Z " fill="#020202" transform="translate(383.75,425.8125)"/>
<path d="M0 0 C19.98 17.23 35.43 41.99 38.67 68.6 C40.87 103.08 33.9 132.95 10.92 159.52 C-7.73 180.59 -35.14 193.37 -63.11 195.69 C-92.4 197.36 -121.07 187.97 -143.08 168.52 C-164.74 149.1 -179.52 122.59 -181.22 93.14 C-182.55 63.27 -173.93 35.21 -154.08 12.52 C-153.48 11.78 -152.88 11.03 -152.26 10.27 C-135.81 -9.53 -108.6 -22.44 -83.26 -25.29 C-53.23 -27.97 -23.37 -19.26 0 0 Z M-144.6 22.79 C-163.51 44.9 -167.95 71.2 -166.08 99.52 C-165.45 105.14 -164.07 110.21 -162.08 115.52 C-161.84 116.18 -161.6 116.83 -161.35 117.51 C-151.52 143.63 -132.06 162.77 -107.13 174.61 C-86.56 183.72 -58.54 183.89 -37.64 175.86 C-12.32 165.55 6.97 147.33 18.01 122.34 C20.81 115.58 22.46 108.68 23.92 101.52 C24.01 101.21 24.01 101.21 24.45 99.63 C29.22 78.38 22.66 54.72 12.08 36.31 C-3.26 12.34 -23.66 -2.12 -51.08 -9.48 C-86.8 -16.78 -120.57 -3.64 -144.6 22.79 Z " fill="#060504" transform="translate(456.078125,399.48046875)"/>
<path d="M0 0 C2.25 3.03 1.96 5.29 1.44 8.94 C-0.88 11.83 -3.3 12.16 -6.81 12.62 C-7.43 12.68 -7.43 12.68 -10.56 12.94 C6.16 32.76 26.87 48.03 52.44 53.94 C53.49 54.2 54.54 54.46 55.63 54.73 C64.28 56.78 72.44 57.41 81.31 57.31 C82.63 57.3 83.95 57.29 85.31 57.28 C94.69 57.13 103.37 56.51 112.44 53.94 C113.14 53.74 113.84 53.55 114.56 53.35 C137.88 46.75 161.69 33.44 175.44 12.94 C174.2 12.86 172.96 12.77 171.69 12.69 C168.68 12.3 167.5 11.98 164.94 10.19 C163.1 7.43 162.79 6.19 163.44 2.94 C164.94 0.62 164.94 0.62 167.44 -1.06 C175.39 -2.02 183.12 0.02 189.69 4.62 C195.53 9.38 201.57 16.53 202.79 24.13 C203.06 28.44 202.8 30.41 200.31 34.06 C197.44 35.94 197.44 35.94 194.31 36.19 C191.44 34.94 191.44 34.94 189.69 31.62 C189.27 30.41 188.86 29.19 188.44 27.94 C187.79 26.6 187.13 25.26 186.44 23.94 C186.07 24.34 186.07 24.34 184.21 26.39 C183.22 27.47 182.24 28.55 181.25 29.62 C180.77 30.16 180.28 30.69 179.79 31.23 C176.75 34.55 173.64 37.78 170.44 40.94 C171.86 44.18 173.81 46.88 175.92 49.71 C180.7 56.13 184.59 62.4 187.44 69.94 C187.87 71.05 188.3 72.16 188.75 73.31 C190.86 84.46 189.75 94.93 183.75 104.62 C178.4 112.11 171.22 118.21 162.17 120.52 C149.71 122.44 139.37 121.26 128.79 114.16 C121.57 108.38 117.78 101.1 113.57 93.06 C111.68 89.52 109.63 86.07 107.56 82.62 C107.19 82 106.82 81.37 106.44 80.72 C102.9 74.79 102.9 74.79 100.44 72.94 C97.72 72.64 97.72 72.64 94.43 72.75 C93.23 72.78 92.02 72.8 90.78 72.83 C89.49 72.86 88.2 72.9 86.88 72.94 C52.26 73.4 17.93 62.26 -7.55 38.05 C-11.49 34.19 -15.35 30.25 -19.16 26.27 C-20.56 24.94 -20.56 24.94 -22.56 23.94 C-22.74 24.64 -22.93 25.33 -23.11 26.05 C-23.24 26.51 -23.24 26.51 -23.88 28.81 C-24.12 29.72 -24.36 30.62 -24.61 31.55 C-25.56 33.94 -25.56 33.94 -28.56 35.94 C-32.22 35.86 -33.93 35.59 -36.5 32.94 C-38.29 27.89 -37.6 23.57 -35.65 18.64 C-31.28 10.05 -24.66 3.32 -15.56 -0.06 C-10.48 -1.58 -4.96 -2.06 0 0 Z " fill="#0A0404" transform="translate(302.5625,601.0625)"/>
<path d="M0 0 C0 39.27 0 78.54 0 119 C-26.4 119 -52.8 119 -80 119 C-80 85.34 -80 51.68 -80 17 C-12 0 -12 0 0 0 Z " fill="#B72842" transform="translate(233,431)"/>
<path d="M0 0 C26.4 0 52.8 0 80 0 C80 38.61 80 77.22 80 117 C72.72 116.34 65.92 115.55 58.83 114.07 C57.9 113.89 56.98 113.7 56.02 113.5 C54.08 113.1 52.14 112.7 50.2 112.3 C47.27 111.69 44.35 111.1 41.42 110.5 C27.37 107.62 13.74 104.12 0 100 C0 67 0 34 0 0 Z " fill="#B72843" transform="translate(153,558)"/>
<path d="M0 0 C17.25 1.15 17.25 1.15 24.03 2.71 C24.41 2.79 24.41 2.79 26.35 3.21 C27.94 3.56 29.53 3.91 31.12 4.27 C33.5 4.81 35.88 5.33 38.26 5.85 C46.63 7.69 54.93 9.71 63.2 11.98 C68.45 13.39 73.73 14.68 79 16 C79 46.03 79 76.06 79 107 C74.71 107 70.42 107 66 107 C61.9 110.24 59.83 112.75 57 117 C54.21 117.26 54.21 117.26 50.94 117.12 C48.96 117.05 46.98 117.01 45 117 C44.67 117.33 44.34 117.66 44 118 C29.48 118 14.96 118 0 118 C0 79.06 0 40.12 0 0 Z " fill="#B82843" transform="translate(538,432)"/>
<path d="M0 0 C1.1 3.29 0.9 4.58 0.29 7.93 C0.11 8.94 -0.07 9.94 -0.26 10.98 C-0.46 12.08 -0.67 13.18 -0.88 14.31 C-1.09 15.46 -1.29 16.6 -1.51 17.78 C-1.95 20.24 -2.4 22.7 -2.85 25.16 C-3.8 30.31 -4.74 35.48 -5.67 40.64 C-6.14 43.21 -6.6 45.78 -7.07 48.35 C-8.57 56.58 -10.04 64.82 -11.44 73.07 C-11.89 75.73 -12.37 78.39 -12.86 81.05 C-14.17 88.29 -15.18 95.48 -15.88 102.8 C-19.49 139.59 -19.49 139.59 -29.17 147.75 C-34.57 151.88 -40.55 154.8 -46.78 157.49 C-50.93 159.44 -54.45 161.94 -58.1 164.7 C-60 166 -60 166 -62 166 C-63.08 164.43 -63.08 164.43 -64.25 162.31 C-67.49 156.91 -71.29 153.72 -77 151 C-76.43 139 -74.17 127.21 -72.19 115.38 C-71.45 110.96 -70.73 106.54 -70 102.12 C-69.82 101.06 -69.64 99.99 -69.46 98.88 C-68.17 91.05 -66.93 83.22 -65.75 75.38 C-65.45 73.44 -65.14 71.5 -64.84 69.56 C-64.22 65.59 -63.71 61.62 -63.23 57.62 C-61.03 40.61 -61.03 40.61 -56.06 36.44 C-54.07 35.25 -52.04 34.11 -50 33 C-47.5 31.36 -45.03 29.67 -42.55 27.99 C-39.81 26.12 -37.04 24.29 -34.27 22.46 C-30.46 19.96 -26.67 17.45 -22.89 14.91 C-15.32 9.84 -7.68 4.9 0 0 Z " fill="#FBFBFB" transform="translate(795,548)"/>
<path d="M0 0 C21.67 0.88 63.27 5.55 80.65 19.06 C83.73 22.91 85.33 26.85 87.06 31.44 C87.24 31.89 87.24 31.89 88.11 34.16 C94.8 51.78 100.48 71.94 99 91 C94.06 90.23 89.19 89.21 84.31 88.12 C83.57 87.96 82.83 87.8 82.07 87.64 C78.04 86.74 74.08 85.74 70.12 84.59 C62.62 82.52 54.97 81.22 47.32 79.84 C44.74 79.37 42.16 78.9 39.59 78.43 C37.93 78.13 36.27 77.83 34.61 77.52 C34.23 77.45 34.23 77.45 32.3 77.1 C28.88 76.49 25.47 75.92 22.02 75.47 C19 75 19 75 18 74 C17.8 72.35 17.61 70.69 17.46 69.04 C15.42 47.6 10.07 25.89 1.31 6.19 C0 3 0 3 0 0 Z " fill="#AE1D3B" transform="translate(518,348)"/>
<path d="M0 0 C-0.2 0.55 -0.39 1.11 -0.59 1.68 C-1.5 4.24 -2.41 6.81 -3.31 9.38 C-3.62 10.25 -3.93 11.12 -4.25 12.01 C-6.07 17.2 -7.76 22.41 -9.28 27.7 C-10 30 -10 30 -11 32.39 C-12.83 37.16 -13.64 42.22 -14.66 47.22 C-15.06 49.17 -15.47 51.11 -15.88 53.06 C-17.19 59.45 -18.33 65.72 -18.79 72.24 C-19 74 -19 74 -20 75 C-21.9 75.37 -23.8 75.69 -25.71 75.98 C-26.92 76.17 -28.13 76.36 -29.38 76.56 C-30.03 76.66 -30.68 76.76 -31.35 76.87 C-51.47 80.04 -71.29 84.39 -91 89.53 C-94.08 90.32 -96.81 91 -100 91 C-100.46 82.48 -99.09 74.46 -97.44 66.12 C-97.3 65.44 -97.17 64.76 -97.04 64.06 C-94.72 52.29 -91.58 41.1 -87 30 C-86.76 29.36 -86.52 28.73 -86.27 28.08 C-82.81 19.02 -82.81 19.02 -79.13 16.95 C-72.1 13.92 -64.6 12.2 -57.18 10.39 C-55.07 9.88 -52.96 9.35 -50.85 8.82 C-44.11 7.15 -37.37 5.62 -30.52 4.44 C-27.95 3.99 -25.39 3.47 -22.83 2.93 C-22 2.76 -21.17 2.58 -20.31 2.4 C-18.63 2.05 -16.95 1.69 -15.28 1.32 C-10.07 0.24 -5.32 -0.18 0 0 Z " fill="#AE1E3B" transform="translate(253,348)"/>
<path d="M0 0 C8.49 1.27 16.7 3.11 25 5.25 C38.36 8.6 51.8 10.96 65.41 13.05 C66.16 13.16 66.91 13.28 67.68 13.4 C69.09 13.62 70.5 13.83 71.91 14.04 C75.27 14.56 77.11 15.08 80 17 C80.64 19.34 80.64 19.34 81.03 22.29 C81.1 22.82 81.1 22.82 81.48 25.56 C81.63 26.71 81.78 27.87 81.94 29.06 C84.49 46.87 88.7 62.64 95.07 79.47 C96.47 83.28 97.75 87.13 99 91 C84.38 89.7 70.27 86.33 56 83 C54.86 82.74 53.71 82.47 52.53 82.2 C49.21 81.43 45.88 80.66 42.56 79.88 C41.58 79.65 40.59 79.42 39.57 79.18 C34.51 77.97 29.48 76.64 24.49 75.15 C23.52 74.86 22.55 74.58 21.55 74.29 C16.34 71.66 14.91 66.2 13 61 C12.49 59.73 11.97 58.45 11.45 57.18 C7.9 48.3 5.2 39.31 3 30 C2.7 28.76 2.4 27.53 2.09 26.25 C0.09 17.32 -0.35 9.1 0 0 Z " fill="#B11D3C" transform="translate(154,668)"/>
<path d="M0 0 C0.33 0 0.66 0 1 0 C1.01 0.98 1.03 1.96 1.04 2.97 C1.41 25.65 2.11 47.55 8.13 69.55 C9.95 76.76 10.27 80.94 6.69 87.56 C6.51 87.91 6.51 87.91 5.59 89.66 C-1.82 103.42 -11.76 116.05 -23.68 126.18 C-24.31 126.71 -24.93 127.24 -25.57 127.79 C-25.81 127.99 -25.81 127.99 -27 129 C-31.01 125.02 -35.01 121.04 -39.01 117.05 C-40.36 115.7 -41.72 114.34 -43.08 112.99 C-56.31 99.85 -56.31 99.85 -61.5 93.73 C-64.31 90.49 -67.39 87.51 -70.44 84.5 C-70.76 84.18 -70.76 84.18 -72.37 82.59 C-73.91 81.05 -75.45 79.53 -77 78 C-75.71 74.13 -74.49 73.94 -70.94 72.06 C-42.2 55.84 -15.01 29.5 0 0 Z " fill="#FCFCFC" transform="translate(138,640)"/>
<path d="M0 0 C0.69 -0.01 1.38 -0.01 2.09 -0.02 C15.58 -0.1 28.33 1.98 41.06 6.56 C41.9 6.86 42.73 7.16 43.6 7.47 C56.15 12.1 74.9 19.54 82.19 31.44 C82.6 35.73 82.67 38.3 81 42.25 C78.86 44.83 77.27 46.11 74.19 47.44 C68.58 47.94 65.74 47.01 61.12 43.88 C59.99 43.13 58.85 42.4 57.71 41.66 C57.42 41.48 57.42 41.48 55.95 40.53 C46.35 34.57 36.01 30.51 25.19 27.44 C24.56 27.25 23.94 27.06 23.3 26.87 C15.73 24.86 7.96 25.04 0.19 25.06 C-0.55 25.06 -1.28 25.06 -2.04 25.06 C-13.1 25.09 -23.28 25.77 -33.81 29.44 C-34.69 29.73 -35.57 30.01 -36.48 30.31 C-46.48 33.96 -56.43 39.18 -65.38 44.94 C-69.35 47.38 -72.08 48.37 -76.81 47.44 C-80.22 45.32 -82.6 43.31 -83.81 39.44 C-84.46 33.63 -83.36 30.99 -79.81 26.44 C-77.6 24.64 -75.51 23.09 -73.12 21.56 C-72.8 21.35 -72.8 21.35 -71.15 20.27 C-63.73 15.56 -55.88 11.89 -47.81 8.44 C-46.88 8.03 -45.95 7.62 -45 7.2 C-42.29 6.1 -39.61 5.24 -36.81 4.44 C-36.19 4.26 -35.57 4.08 -34.94 3.89 C-23.39 0.68 -11.92 0.04 0 0 Z " fill="#060202" transform="translate(385.8125,323.5625)"/>
<path d="M0 0 C29 0 29 0 41 1 C40.35 8.85 39.4 16.6 38.22 24.39 C38.05 25.54 37.88 26.69 37.7 27.88 C37.16 31.52 36.61 35.17 36.06 38.81 C35.52 42.44 34.98 46.06 34.44 49.69 C34.09 52.02 33.74 54.35 33.39 56.69 C32.54 62.34 31.71 67.99 30.91 73.64 C29.81 81.4 28.59 89.14 27.38 96.88 C27.14 98.35 26.91 99.83 26.68 101.31 C26.12 104.87 25.56 108.44 25 112 C17 115 17 115 0 117 C0 78.39 0 39.78 0 0 Z " fill="#C54154" transform="translate(538,558)"/>
<path d="M0 0 C38.93 3.14 76.73 19.15 106 45 C106.26 45.23 106.26 45.23 107.57 46.37 C115.16 53.04 121.86 59.94 128 68 C128.85 69.1 129.7 70.19 130.55 71.29 C137 79.68 137 79.68 137 82 C129.13 80.71 121.51 78.87 113.81 76.81 C105.08 74.48 96.47 72.69 87.52 71.44 C85.71 71.18 83.9 70.91 82.09 70.64 C79.4 70.25 76.72 69.88 74.03 69.57 C59.72 67.95 59.72 67.95 55.42 63.08 C53.65 59.77 52.33 56.5 51 53 C38.82 32.79 22.31 14.38 1.95 2.24 C1.31 1.83 0.66 1.42 0 1 C0 0.67 0 0.34 0 0 Z " fill="#AB1A38" transform="translate(454,272)"/>
<path d="M0 0 C-3.9 11.09 -13.59 20.17 -21.6 28.54 C-22.84 29.84 -24.08 31.15 -25.31 32.47 C-40.45 48.25 -60.02 59.5 -80 68 C-80.64 68.27 -81.27 68.54 -81.93 68.82 C-97.86 75.5 -117.6 82.41 -135 82 C-135 81.34 -135 80.68 -135 80 C-133.27 78.88 -133.27 78.88 -130.81 77.56 C-112.64 67 -98.52 50.27 -87.25 32.81 C-86.87 32.23 -86.48 31.64 -86.09 31.04 C-84.4 28.43 -82.98 25.94 -81.84 23.04 C-80.56 19.91 -79.58 18.22 -77 16 C-71.34 13.84 -65.15 13.32 -59.19 12.49 C-53.47 11.61 -47.84 10.36 -42.19 9.12 C-41.01 8.87 -39.84 8.62 -38.63 8.36 C-29.52 6.39 -20.48 4.19 -11.46 1.83 C-10.54 1.59 -9.61 1.35 -8.66 1.1 C-8.25 0.99 -8.25 0.99 -6.21 0.46 C-4 0 -4 0 0 0 Z " fill="#AA1938" transform="translate(590,753)"/>
<path d="M0 0 C-2.28 2.45 -4.71 4.22 -7.5 6.06 C-15.42 11.52 -22.24 18.19 -29 25 C-29.55 25.53 -30.1 26.05 -30.67 26.59 C-34.92 30.71 -38.44 35.02 -41.81 39.88 C-42.34 40.6 -42.88 41.33 -43.42 42.08 C-46.11 45.84 -48.24 49.3 -49.77 53.68 C-51.66 58.71 -53.52 62.8 -58 66 C-66.94 69.21 -76.55 70 -85.93 71.08 C-94.07 72.05 -101.97 73.8 -109.94 75.69 C-110.56 75.83 -110.56 75.83 -113.7 76.56 C-121.15 78.29 -128.58 80.12 -136 82 C-131.74 70.85 -122.49 61.92 -114.34 53.4 C-113.23 52.24 -112.14 51.05 -111.05 49.86 C-95.6 33.36 -74.6 21.78 -54 13 C-52.83 12.49 -51.67 11.98 -50.46 11.45 C-35.48 5.21 -16.3 -0.48 0 0 Z " fill="#AA1B38" transform="translate(316,272)"/>
<path d="M0 0 C6.25 0.65 12.21 1.88 18.31 3.38 C19.19 3.58 20.06 3.79 20.96 4.01 C28.16 5.75 28.16 5.75 31.45 6.74 C37.28 8.49 43.01 9.47 49.04 10.23 C77.12 13.92 77.12 13.92 82.39 19.78 C84.64 23.25 86.03 26.95 87.26 30.89 C88.44 34.26 90.29 36.78 92.38 39.69 C93.11 40.72 93.84 41.75 94.6 42.82 C105.61 57.41 117.69 69.28 133.14 79.1 C134.08 79.73 135.03 80.35 136 81 C136 81.33 136 81.66 136 82 C106.82 81.35 74.05 67.98 50 52 C49.42 51.62 48.84 51.25 48.25 50.86 C31.01 39.51 6.73 20.18 0 0 Z " fill="#AB1838" transform="translate(180,753)"/>
<path d="M0 0 C-0.06 0.39 -0.06 0.39 -0.37 2.34 C-0.92 5.87 -1.46 9.4 -2 12.94 C-2.1 13.54 -2.1 13.54 -2.58 16.61 C-4.66 30.3 -4.66 30.3 -4 36 C-0.62 39.2 4.01 40.04 8.44 41.25 C15.69 43.3 22.88 45.51 30.06 47.81 C31.04 48.13 32.03 48.44 33.04 48.76 C35.36 49.51 37.68 50.25 40 51 C39.71 54.38 39.04 55.95 36.92 58.66 C33.53 61.38 30.36 62.45 26.22 63.46 C25.46 63.66 24.7 63.86 23.92 64.07 C21.45 64.71 18.98 65.32 16.5 65.94 C14.79 66.37 13.08 66.81 11.36 67.25 C-25.96 76.7 -25.96 76.7 -43 78 C-41.33 72.96 -39.63 67.93 -37.88 62.92 C-33.19 49.38 -29.27 36.15 -27 22 C-26.85 21.11 -26.71 20.22 -26.56 19.31 C-25.66 13.88 -24.81 8.44 -24 3 C-21.5 2.49 -19 1.99 -16.5 1.5 C-15.8 1.36 -15.11 1.21 -14.39 1.07 C-9.51 0.12 -4.97 -0.13 0 0 Z " fill="#B32641" transform="translate(561,681)"/>
<path d="M0 0 C8.63 3.79 13.06 12.91 17 21 C17.34 21.66 17.69 22.31 18.04 22.99 C21.25 29.99 21.3 38.57 19.16 45.88 C15.88 53.14 10.55 58.66 3.25 61.94 C-3.9 64.17 -11.39 64.11 -18.25 61.06 C-27.45 55.63 -32.54 46.97 -37.31 37.69 C-38.33 35.75 -39.34 33.82 -40.36 31.89 C-40.8 31.04 -41.24 30.2 -41.68 29.33 C-43 27 -43 27 -44.66 24.82 C-46 23 -46 23 -46 21 C-42.92 19.79 -39.84 18.61 -36.75 17.44 C-36.31 17.27 -36.31 17.27 -34.11 16.4 C-33.26 16.08 -32.42 15.76 -31.55 15.43 C-30.77 15.14 -30 14.84 -29.2 14.53 C-26.7 13.93 -25.38 14.1 -23 15 C-17.46 20.19 -14.07 27.27 -10.84 34.03 C-8.48 38.78 -8.48 38.78 -5.82 40 C-5.22 40 -4.62 40 -4 40 C-3 39 -3 39 -2.5 35.81 C-2.57 28.01 -7.75 19.43 -12.8 13.76 C-13.53 12.85 -14.25 11.94 -15 11 C-14 8 -14 8 -11.86 6.72 C-10.98 6.32 -10.09 5.91 -9.19 5.5 C-5.81 3.94 -2.91 2.33 0 0 Z " fill="#AE1838" transform="translate(461,649)"/>
<path d="M0 0 C0.71 0.16 1.42 0.32 2.16 0.49 C5 1 7.61 1.13 10.5 1.12 C11.42 1.13 12.34 1.13 13.28 1.13 C15.95 1 18.39 0.55 21 0 C24.64 6.71 27.23 13.23 29.12 20.62 C29.38 21.59 29.63 22.55 29.89 23.53 C30.61 26.35 31.31 29.17 32 32 C32.09 32.38 32.09 32.38 32.56 34.28 C35.08 44.95 35.34 55.1 35 66 C32.36 66 29.72 66 27 66 C25.68 57.42 24.36 48.84 23 40 C21.35 39.67 19.7 39.34 18 39 C18 48.57 18 58.14 18 68 C-3.46 68.29 -3.46 68.29 -13 66 C-13.2 58.02 -12.75 50.48 -11.38 42.62 C-11.2 41.6 -11.03 40.58 -10.85 39.53 C-8.43 26.05 -4.98 12.76 0 0 Z " fill="#B5203C" transform="translate(374,960)"/>
<path d="M0 0 C6.57 1.59 13.05 3.23 19.44 5.44 C25.15 7.39 30.88 9.22 36.66 10.98 C50.48 15.19 64.24 19.61 78 24 C77.31 34.77 75.68 45.35 74 56 C68.42 55.29 63.32 53.57 58 51.81 C49.03 48.89 40 46.28 30.88 43.87 C30.45 43.75 30.45 43.75 28.23 43.16 C27.46 42.96 26.69 42.76 25.9 42.55 C24 42 24 42 22 41 C21.14 37.99 20.53 34.95 19.88 31.88 C19 29.01 18.31 27.84 16 26 C16.8 25.65 17.61 25.3 18.44 24.94 C21 23 21 23 22.06 19.56 C22 16 22 16 20.44 13.56 C17.34 11.58 15.62 11.46 12 12 C10.12 13.12 10.12 13.12 9 15 C8.39 19.65 9.32 22.21 12 26 C11.26 26.21 10.51 26.41 9.75 26.62 C6.21 28.4 4.98 30.63 3 34 C0.69 33.67 -1.62 33.34 -4 33 C-4.28 25.82 -3.2 19.06 -2 12 C-1.81 10.84 -1.62 9.69 -1.42 8.5 C-0.95 5.66 -0.48 2.83 0 0 Z " fill="#FBFAFA" transform="translate(593,625)"/>
<path d="M0 0 C-1.32 12.13 -3.05 24.15 -5 36.19 C-5.52 39.43 -6.04 42.67 -6.56 45.92 C-6.69 46.7 -6.81 47.49 -6.94 48.3 C-8.04 55.19 -9.03 62.09 -10 69 C-10.74 74.18 -11.48 79.35 -12.23 84.53 C-12.46 86.07 -12.68 87.62 -12.9 89.17 C-13.22 91.43 -13.55 93.69 -13.88 95.96 C-13.98 96.65 -14.07 97.35 -14.18 98.06 C-14.89 102.89 -14.89 102.89 -16 104 C-18.25 104.21 -20.5 104.37 -22.75 104.5 C-26.94 104.75 -30.9 105.13 -35 106 C-34.44 95.72 -33.19 85.67 -31.6 75.52 C-31.36 73.96 -31.13 72.41 -30.89 70.86 C-30.27 66.81 -29.64 62.76 -29.01 58.71 C-28.5 55.45 -28 52.18 -27.5 48.92 C-26.89 44.95 -26.28 40.98 -25.66 37.02 C-25.55 36.29 -25.44 35.56 -25.32 34.81 C-23.63 23.86 -21.84 12.93 -20 2 C-18.86 1.84 -17.72 1.68 -16.55 1.52 C-14.56 1.24 -12.57 0.97 -10.58 0.68 C-7.02 0.2 -3.59 -0.04 0 0 Z " fill="#FAF9F9" transform="translate(724,592)"/>
<path d="M0 0 C4.42 0.55 8.51 1.33 12.75 2.69 C13.85 3.04 14.95 3.39 16.09 3.75 C16.7 3.94 17.31 4.14 17.94 4.34 C20.31 5.1 22.69 5.85 25.07 6.6 C29.71 8.06 34.36 9.53 39 11 C39.11 16.41 38.77 21.42 37.91 26.78 C37.8 27.48 37.68 28.18 37.57 28.9 C37.22 31.1 36.86 33.3 36.5 35.5 C36.26 37.01 36.02 38.51 35.78 40.02 C35.19 43.68 34.6 47.34 34 51 C29.42 52.41 25.98 51.4 21.58 49.95 C20.88 49.72 20.19 49.5 19.47 49.28 C17.24 48.57 15.03 47.85 12.81 47.12 C11.31 46.65 9.81 46.17 8.31 45.69 C-2.54 42.23 -2.54 42.23 -5 41 C-4.59 27.13 -2.35 13.65 0 0 Z " fill="#0F0E0E" transform="translate(643,589)"/>
<path d="M0 0 C4.69 0.79 9.11 2.23 13.62 3.69 C15.33 4.23 17.04 4.78 18.75 5.32 C19.62 5.6 20.49 5.88 21.39 6.17 C25.48 7.47 29.59 8.77 33.69 10.06 C34.48 10.31 35.26 10.56 36.08 10.82 C45.83 13.9 55.59 16.94 65.35 19.97 C67.37 20.6 69.39 21.24 71.41 21.88 C73.59 22.56 75.77 23.22 77.97 23.84 C80.44 24.56 80.44 24.56 84 26 C85.9 29.78 84.51 34.06 83.79 38.05 C83.65 38.82 83.52 39.59 83.38 40.38 C82.95 42.84 82.5 45.3 82.06 47.75 C81.77 49.42 81.47 51.09 81.18 52.75 C80.46 56.84 79.73 60.92 79 65 C74.52 66.42 71.32 64.99 67.06 63.44 C60.49 61.14 53.9 59.05 47.19 57.19 C38.39 54.73 29.66 52.09 20.94 49.38 C19.74 49 18.54 48.63 17.3 48.25 C-3.44 41.78 -3.44 41.78 -7 40 C-6.01 30.87 -4.89 21.77 -3.5 12.69 C-3.38 11.88 -3.26 11.08 -3.14 10.25 C-2.56 6.51 -2.03 3.27 0 0 Z M2 5 C1.32 9 0.66 13 0 17 C-0.1 17.56 -0.1 17.56 -0.58 20.41 C-1.55 26.36 -2.24 31.97 -2 38 C0.31 38.33 2.62 38.66 5 39 C5.56 38.05 6.11 37.1 6.69 36.12 C9.07 32.91 10.24 32.04 14 31 C13.5 30.3 13.01 29.6 12.5 28.88 C10.77 25.56 10.52 23.69 11 20 C12.12 18.12 12.12 18.12 14 17 C17.62 16.46 19.34 16.58 22.44 18.56 C24 21 24 21 24.06 24.5 C22.83 28.55 21.51 29.75 18 32 C18.62 32.45 19.24 32.91 19.88 33.38 C22.96 37.19 23.31 41.23 24 46 C33.96 49.18 43.93 52.32 53.97 55.23 C59.5 56.84 64.98 58.55 70.46 60.3 C73 61 73 61 76 61 C76.67 56.79 77.34 52.58 78 48.38 C78.1 47.78 78.1 47.78 78.58 44.77 C78.67 44.19 78.67 44.19 79.12 41.27 C79.29 40.22 79.46 39.16 79.63 38.07 C80 35.01 80.06 32.07 80 29 C75.99 27.64 71.97 26.29 67.95 24.95 C66.59 24.49 65.23 24.03 63.87 23.57 C55.8 20.85 47.71 18.3 39.5 16 C32.63 14.04 25.82 11.85 19 9.7 C17.11 9.11 15.23 8.52 13.34 7.93 C12.24 7.58 11.14 7.23 10.01 6.88 C7.35 6.1 4.73 5.49 2 5 Z " fill="#131111" transform="translate(591,620)"/>
<path d="M0 0 C13.74 4.12 27.42 8.37 41 13 C40.49 23.19 38.91 32.99 37 43 C31.56 42.4 26.78 41.06 21.62 39.25 C12.82 36.23 3.95 33.56 -5 31 C-4.55 27.33 -4.09 23.67 -3.62 20 C-3.5 18.97 -3.37 17.94 -3.24 16.88 C-2.51 11.12 -1.55 5.6 0 0 Z " fill="#FAFAFA" transform="translate(587,670)"/>
<path d="M0 0 C7.78 2.07 15.49 4.32 23.19 6.69 C23.71 6.85 23.71 6.85 26.36 7.66 C28.91 8.44 31.45 9.22 34 10 C33.33 15.67 33.33 15.67 30 44 C23.06 42.4 16.42 40.51 9.76 37.98 C5.25 36.38 0.63 35.18 -4 34 C-4.26 26.44 -3.27 19.38 -2 11.94 C-1.81 10.79 -1.62 9.63 -1.42 8.45 C-0.95 5.63 -0.48 2.81 0 0 Z " fill="#FAFAFA" transform="translate(600,579)"/>
<path d="M0 0 C0 39.27 0 78.54 0 119 C-26.4 119 -52.8 119 -80 119 C-80 85.34 -80 51.68 -80 17 C-12 0 -12 0 0 0 Z M-7.5 2.94 C-8.29 3.11 -9.09 3.29 -9.91 3.46 C-12 4 -12 4 -14 5 C-16 5 -18 5 -20 5 C-21.67 5.3 -23.34 5.64 -25 6 C-25.6 6.07 -25.6 6.07 -28.62 6.44 C-32 7 -32 7 -35 9 C-36.65 9.39 -38.33 9.71 -40 10 C-41.56 10.33 -43.13 10.66 -44.69 11 C-45.45 11.17 -46.22 11.33 -47.01 11.5 C-49 12 -49 12 -51 13 C-51.84 13.14 -52.68 13.28 -53.55 13.42 C-57.84 14.14 -61.99 15.19 -66.19 16.31 C-66.59 16.41 -66.59 16.41 -68.63 16.92 C-69.41 17.13 -70.18 17.34 -70.98 17.55 C-71.68 17.73 -72.38 17.92 -73.1 18.1 C-75.74 19.35 -76.54 20.44 -78 23 C-78.28 25.86 -78.39 28.49 -78.36 31.35 C-78.36 32.18 -78.36 33.02 -78.36 33.89 C-78.37 36.66 -78.35 39.44 -78.33 42.21 C-78.33 44.14 -78.32 46.07 -78.32 48 C-78.32 52.05 -78.3 56.1 -78.28 60.14 C-78.25 65.32 -78.24 70.5 -78.24 75.68 C-78.23 79.67 -78.22 83.66 -78.21 87.65 C-78.21 89.56 -78.2 91.47 -78.2 93.38 C-78.19 96.05 -78.18 98.72 -78.16 101.4 C-78.16 102.18 -78.16 102.97 -78.16 103.78 C-78.13 107.95 -77.82 111.9 -77 116 C-68.04 116.72 -59.17 117.06 -50.19 117 C-43.21 116.95 -36.28 117.08 -29.31 117.5 C-19.89 118.01 -10.44 118 -1 118 C-1 79.72 -1 41.44 -1 2 C-3.29 2 -5.26 2.44 -7.5 2.94 Z " fill="#91283B" transform="translate(233,431)"/>
<path d="M0 0 C7.92 2.31 15.84 4.62 24 7 C22.88 18.25 22.88 18.25 22.25 22.57 C22.11 23.49 21.98 24.4 21.85 25.34 C21.71 26.26 21.58 27.18 21.44 28.12 C21.3 29.08 21.16 30.04 21.02 31.02 C20.68 33.35 20.34 35.67 20 38 C11.84 36.09 3.92 33.76 -4 31 C-4.16 24.35 -3.61 18.12 -2.56 11.56 C-2.5 11.11 -2.5 11.11 -2.15 8.85 C-1.14 2.28 -1.14 2.28 0 0 Z " fill="#F8F8F8" transform="translate(641,687)"/>
<path d="M0 0 C5.19 0.61 9.91 1.75 14.88 3.38 C15.57 3.6 16.27 3.82 16.99 4.05 C22 5.66 27.01 7.31 32 9 C31.33 20.09 29.64 31.02 28 42 C26.85 41.84 26.85 41.84 21 41 C20.9 40.25 20.8 39.5 20.7 38.73 C19.47 30.59 19.47 30.59 16.88 27.31 C16.26 26.88 15.64 26.45 15 26 C15.99 25.46 16.98 24.93 18 24.38 C21 22 21 22 21.44 18.94 C21 16 21 16 20 13 C18.57 12.75 17.13 12.53 15.69 12.31 C14.89 12.18 14.09 12.06 13.26 11.93 C11 12 11 12 9.23 13.3 C7.3 15.96 7.55 17.8 8 21 C10 23.88 10 23.88 12 26 C11.07 26.39 10.14 26.78 9.19 27.19 C5.77 29.13 4.69 30.53 3 34 C0.69 33.67 -1.62 33.34 -4 33 C-3.33 21.91 -1.64 10.98 0 0 Z " fill="#F6F6F6" transform="translate(646,594)"/>
<path d="M0 0 C2.31 0.16 2.31 0.16 14 1 C14 1.33 14 1.66 14 2 C10.7 2.33 7.4 2.66 4 3 C9.4 13.81 20.03 31.51 31 37 C31 37.66 31 38.32 31 39 C31.99 39 32.98 39 34 39 C35.5 40.5 35.5 40.5 37 42.44 C39.68 45.89 39.68 45.89 43 47 C43 47.66 43 48.32 43 49 C44.98 49.66 46.96 50.32 49 51 C49 51.66 49 52.32 49 53 C49.68 53.1 50.36 53.21 51.06 53.31 C54.63 54.15 57.66 55.49 61 57 C61 57.66 61 58.32 61 59 C67.05 60.37 67.05 60.37 70 61 C70.61 61.16 71.23 61.33 71.86 61.49 C80.99 63.68 90.35 63.51 99.69 63.69 C100.61 63.71 101.53 63.73 102.48 63.75 C114.81 64 127.12 64.08 139.44 63.75 C140.66 63.72 141.88 63.7 143.14 63.67 C153.85 63.29 162.96 60.97 172.44 56 C173.12 55.66 173.8 55.31 174.5 54.96 C177.28 53.54 179.8 52.15 182.29 50.25 C184 49 184 49 187 49 C187 48.34 187 47.68 187 47 C188.65 46.34 190.3 45.68 192 45 C192 44.34 192 43.68 192 43 C195.46 40 195.46 40 198 40 C198 39.34 198 38.68 198 38 C200.32 35.53 202.76 33.22 205.25 30.92 C213.15 23.49 222.52 13.44 226 3 C221.82 3.41 217.64 3.81 213.46 4.23 C212.04 4.37 210.62 4.51 209.19 4.64 C207.15 4.84 205.1 5.04 203.05 5.25 C201.82 5.37 200.59 5.49 199.32 5.61 C196 6 196 6 193.29 6.55 C189.9 7.21 186.6 6.85 183.19 6.56 C182.84 6.54 182.84 6.54 181.09 6.4 C179.39 6.28 177.7 6.14 176 6 C176 5.67 176 5.34 176 5 C177.28 4.88 178.55 4.77 179.87 4.65 C184.61 4.22 189.35 3.78 194.1 3.35 C196.15 3.16 198.2 2.97 200.25 2.78 C203.2 2.52 206.15 2.24 209.11 1.97 C210.02 1.89 210.94 1.81 211.88 1.72 C215.99 1.34 219.96 0.85 224 0 C226.33 -0.04 228.67 -0.05 231 0 C222.1 24 196.63 48.31 173.76 59.05 C165.27 62.87 157.49 66.29 148.05 66.32 C147.66 66.33 147.66 66.33 145.7 66.35 C143.14 66.38 140.59 66.4 138.04 66.41 C137.16 66.41 136.28 66.42 135.37 66.42 C130.71 66.45 126.05 66.47 121.39 66.48 C116.62 66.49 111.85 66.54 107.08 66.6 C103.37 66.63 99.67 66.64 95.96 66.65 C94.21 66.65 92.45 66.67 90.69 66.7 C68.01 67.01 49.93 57.91 33 43 C32.57 42.64 32.57 42.64 30.41 40.82 C19.83 31.68 11.92 20.42 4 9 C3.62 8.47 3.62 8.47 1.71 5.77 C0 3 0 3 0 0 Z " fill="#95293F" transform="translate(270,771)"/>
<path d="M0 0 C4.77 -0.25 8.27 0.57 12.75 2.19 C18.53 4.22 24.33 5.97 30.25 7.56 C36.97 9.38 43.52 11.44 50 14 C48.9 23.16 47.71 32.3 46.44 41.44 C46.31 42.37 46.18 43.3 46.05 44.25 C45.93 45.12 45.81 45.98 45.68 46.87 C45.58 47.64 45.47 48.42 45.36 49.21 C45 51 45 51 44 52 C37.97 51.53 32.51 50.14 26.76 48.35 C25.91 48.09 25.06 47.83 24.18 47.56 C22.4 47.01 20.62 46.46 18.84 45.91 C16.11 45.06 13.38 44.23 10.65 43.39 C8.91 42.86 7.18 42.32 5.45 41.79 C4.63 41.54 3.81 41.29 2.97 41.03 C-2.77 39.23 -2.77 39.23 -5 37 C-5.65 24.84 -2.1 11.91 0 0 Z M4 4 C2.17 10.62 1.21 17.19 0.38 24 C0.24 25.06 0.11 26.12 -0.03 27.21 C-0.36 29.81 -0.68 32.4 -1 35 C4.35 36.71 9.7 38.41 15.05 40.11 C18.67 41.26 22.28 42.41 25.88 43.58 C27.3 44.03 28.71 44.48 30.12 44.94 C31.37 45.34 32.61 45.74 33.88 46.15 C37 47 37 47 41 47 C41.68 43.31 42.34 39.63 43 35.94 C43.19 34.9 43.38 33.86 43.58 32.79 C44.53 27.45 45.25 22.43 45 17 C31.49 12.14 17.95 7.44 4 4 Z " fill="#171515" transform="translate(583,666)"/>
<path d="M0 0 C6.69 1.24 13.01 3.22 19.44 5.44 C25.62 7.55 31.8 9.58 38.09 11.37 C40 12 40 12 41 13 C40.82 22.16 39.34 31.27 37.94 40.31 C37.75 41.54 37.56 42.77 37.37 44.04 C36.92 47.03 36.46 50.01 36 53 C26.83 52.59 18.53 49.4 9.94 46.44 C8.39 45.91 6.84 45.39 5.29 44.86 C1.52 43.58 -2.24 42.3 -6 41 C-5.31 32.25 -4.2 23.57 -3 14.88 C-2.82 13.54 -2.64 12.2 -2.46 10.86 C-2.29 9.6 -2.12 8.35 -1.94 7.05 C-1.86 6.48 -1.86 6.48 -1.46 3.6 C-1 1 -1 1 0 0 Z M3 5 C2.32 8.98 1.66 12.96 1 16.94 C0.81 18.05 0.62 19.17 0.42 20.32 C-0.62 26.64 -1.22 32.59 -1 39 C-0.03 39.3 0.94 39.61 1.94 39.92 C2.58 40.12 3.22 40.32 3.88 40.52 C5.3 40.97 6.73 41.42 8.16 41.86 C11.96 43.05 15.76 44.24 19.55 45.45 C19.92 45.56 19.92 45.56 21.75 46.14 C23.15 46.58 24.55 47.03 25.95 47.48 C30.78 49 30.78 49 33 49 C33.57 44.8 34.14 40.6 34.71 36.4 C34.9 34.97 35.1 33.55 35.29 32.12 C35.57 30.06 35.85 28.01 36.12 25.95 C36.29 24.72 36.46 23.48 36.63 22.21 C37 19 37 19 37 15 C32.48 13.57 27.96 12.15 23.44 10.73 C21.9 10.24 20.36 9.76 18.82 9.27 C16.61 8.57 14.41 7.88 12.2 7.19 C11.51 6.97 10.82 6.75 10.11 6.52 C5.23 5 5.23 5 3 5 Z " fill="#161515" transform="translate(597,574)"/>
<path d="M0 0 C4 1.34 6.52 3.31 8.94 6.81 C10.59 11.77 10.63 15.36 8.75 20.25 C6.32 24.07 4.27 25.58 0 27 C-4.02 27.62 -7.54 27.88 -11.11 25.73 C-16.75 20.94 -16.75 20.94 -17.31 16.64 C-17.54 11.45 -17.6 7.95 -14.12 3.88 C-9.83 -0.46 -5.93 -0.69 0 0 Z " fill="#BD223E" transform="translate(389,924)"/>
<path d="M0 0 C20.13 0 40.26 0 61 0 C61 0.33 61 0.66 61 1 C60.23 1.06 59.46 1.11 58.66 1.17 C55.13 1.42 51.6 1.68 48.06 1.94 C46.85 2.02 45.64 2.11 44.39 2.2 C34.23 2.94 34.23 2.94 29.28 3.57 C24.35 4.15 19.45 4.07 14.5 4 C12.72 3.97 10.94 3.95 9.16 3.94 C8.38 3.93 7.61 3.91 6.81 3.9 C5 4 5 4 4 5 C2.26 18.18 2.85 31.73 2.87 44.98 C2.87 48.86 2.87 52.74 2.86 56.62 C2.85 94.33 2.85 94.33 6 99 C8.68 99.84 11.17 99.82 14 100 C14 100.66 14 101.32 14 102 C15.13 102.08 16.27 102.16 17.44 102.25 C22.98 102.85 28.31 104.18 33.71 105.54 C38.46 106.72 43.13 107.47 48 108 C48 108.66 48 109.32 48 110 C50.31 110 52.62 110 55 110 C55 110.66 55 111.32 55 112 C55.63 111.99 56.25 111.98 56.9 111.96 C57.72 111.96 58.53 111.95 59.38 111.94 C60.19 111.93 61 111.91 61.84 111.9 C64 112 64 112 66 113 C67.54 113.22 69.08 113.41 70.62 113.56 C71.03 113.6 71.03 113.6 73.1 113.82 C73.73 113.88 74.35 113.94 75 114 C75 114.66 75 115.32 75 116 C75.5 116.16 75.5 116.16 78 117 C71.58 116.37 65.34 115.38 59.02 114.07 C58.1 113.89 57.17 113.7 56.21 113.5 C54.26 113.1 52.3 112.7 50.35 112.3 C47.41 111.69 44.46 111.1 41.52 110.5 C27.43 107.63 13.78 104.13 0 100 C0 67 0 34 0 0 Z " fill="#871F34" transform="translate(153,558)"/>
<path d="M0 0 C4.13 0.96 8.15 2.22 12.19 3.5 C13.35 3.86 14.5 4.23 15.7 4.6 C31.24 9.58 45.97 15.85 60.69 22.88 C61.3 23.16 61.9 23.45 62.53 23.75 C64.26 24.57 65.98 25.41 67.7 26.24 C68.7 26.73 69.7 27.21 70.73 27.71 C73 29 73 29 74 31 C68.66 30.38 63.78 29.17 58.66 27.56 C57.88 27.32 57.09 27.07 56.27 26.82 C53.72 26.03 51.17 25.23 48.62 24.44 C46.86 23.89 45.1 23.34 43.34 22.8 C31.56 19.14 19.8 15.41 8.06 11.62 C2.06 9.69 -3.96 7.82 -10 6 C-10 3 -10 3 -8.94 1.31 C-6.03 -0.65 -3.36 -0.39 0 0 Z " fill="#EEEBE8" transform="translate(615,548)"/>
<path d="M0 0 C7.83 2.33 15.63 4.72 23.44 7.12 C24.61 7.48 25.78 7.84 26.98 8.21 C28.1 8.56 29.22 8.9 30.37 9.26 C30.88 9.41 30.88 9.41 33.43 10.2 C35.29 10.78 37.15 11.38 39 12 C38.78 17.55 37.63 20.04 33.65 23.88 C33.08 24.39 32.52 24.91 31.94 25.44 C31.37 25.98 30.8 26.52 30.22 27.08 C28.82 28.4 27.41 29.7 26 31 C17.23 27.37 10.96 16.82 5.38 9.44 C4.84 8.73 4.31 8.03 3.76 7.31 C3.27 6.65 2.78 5.99 2.27 5.31 C1.83 4.72 1.4 4.13 0.94 3.52 C0 2 0 2 0 0 Z " fill="#F8F8F8" transform="translate(621,738)"/>
<path d="M0 0 C3.2 1.3 4.59 2.52 6.81 5.12 C8.48 9.16 8.69 12.69 8 17 C5.92 21.1 4.24 23.3 0 25 C-4.09 25.64 -8.23 25.96 -11.95 23.95 C-14.98 21.47 -16.83 19.52 -17.27 15.61 C-17.58 6.94 -17.58 6.94 -14.62 3.38 C-10.03 -0.78 -6 -0.52 0 0 Z " fill="#AF213D" transform="translate(390,227)"/>
<path d="M0 0 C3.23 1.48 5.72 3.27 8 6 C9.21 9.62 9.32 12.19 9 16 C6.57 20.87 4.14 23.19 -1 25 C-4.6 25.59 -6.85 25.75 -9.96 23.72 C-15.76 18.87 -15.76 18.87 -16.27 14.83 C-16.58 7.01 -16.58 7.01 -13.62 3.44 C-9.29 -0.59 -5.74 -0.57 0 0 Z " fill="#A4233B" transform="translate(389,148)"/>
<path d="M0 0 C0.92 0.01 1.83 0.01 2.78 0.02 C3.77 0.02 4.76 0.02 5.78 0.03 C6.82 0.03 7.86 0.04 8.93 0.05 C9.45 0.05 9.45 0.05 12.1 0.06 C14.69 0.08 17.28 0.09 19.87 0.11 C15.47 3.8 10.78 6.74 5.86 9.67 C2.08 12.02 -0.36 13.99 -2.13 18.11 C-2.43 20.57 -2.43 20.57 -2.32 22.93 C-2.29 23.72 -2.27 24.51 -2.24 25.32 C-2.22 25.62 -2.22 25.62 -2.13 27.11 C-5.09 24.47 -5.09 24.47 -5.51 21.3 C-4.85 15.7 -2.45 11.69 1.87 8.11 C3.84 7.05 5.83 6.04 7.87 5.11 C7.7 4.95 7.7 4.95 6.87 4.11 C4.72 4.18 2.57 4.31 0.43 4.49 C-0.16 4.53 -0.16 4.53 -3.13 4.76 C-6.13 5.11 -6.13 5.11 -8.13 6.11 C-10.02 6.32 -11.92 6.48 -13.82 6.61 C-18.3 6.96 -22.7 7.37 -27.13 8.11 C-27.95 8.21 -28.76 8.31 -29.6 8.41 C-34.16 9.08 -36.56 9.6 -40.07 12.74 C-42 15.9 -43.29 18.77 -44.45 22.25 C-45.13 24.11 -45.13 24.11 -46.63 26.43 C-48.65 30.04 -49.49 33.78 -50.48 37.79 C-51.13 40.11 -51.13 40.11 -52.13 41.11 C-52.26 42.1 -52.38 43.09 -52.51 44.11 C-52.99 47.91 -54.17 51.29 -55.44 54.89 C-56.39 57.95 -56.74 60.94 -57.13 64.11 C-57.3 64.28 -57.3 64.28 -58.13 65.11 C-58.32 66.67 -58.46 68.24 -58.57 69.8 C-58.93 73.83 -59.64 77.32 -61.13 81.11 C-60.1 80.95 -59.07 80.78 -58.01 80.61 C-54.63 80.18 -51.53 79.88 -48.13 80.11 C-47.47 80.77 -46.81 81.43 -46.13 82.11 C-48.77 82.28 -48.77 82.28 -62.13 83.11 C-62.53 75.06 -61.03 67.82 -59.26 59.99 C-58.99 58.75 -58.72 57.52 -58.44 56.24 C-57.17 50.47 -55.79 44.78 -54.13 39.11 C-53.82 37.51 -53.53 35.91 -53.26 34.3 C-52.22 28.92 -50.26 24.14 -48.13 19.11 C-47.11 16.45 -46.12 13.78 -45.13 11.11 C-44.47 11.11 -43.81 11.11 -43.13 11.11 C-43.09 10.8 -43.09 10.8 -42.85 9.22 C-42.61 8.52 -42.38 7.83 -42.13 7.11 C-31.15 1.92 -17.17 2.16 -5.22 1.36 C-2.75 1.07 -2.5 0.13 0 0 Z " fill="#783A3F" transform="translate(305.133056640625,337.886474609375)"/>
<path d="M0 0 C1.79 -0.01 3.58 -0.01 5.38 -0.02 C9.11 -0.04 12.84 -0.03 16.57 -0.01 C21.3 0.02 26.03 -0.01 30.75 -0.05 C34.45 -0.08 38.14 -0.08 41.84 -0.07 C43.58 -0.06 45.32 -0.07 47.06 -0.09 C69.29 -0.3 89.51 8.45 105.76 23.65 C105.96 23.85 105.96 23.85 106.95 24.83 C105.96 25.16 104.97 25.49 103.95 25.83 C100.76 23.52 100.76 23.52 97.95 20.83 C97.95 20.17 97.95 19.51 97.95 18.83 C97.55 18.73 97.55 18.73 95.51 18.21 C92.43 17.02 90.47 15.89 87.82 14.02 C74 4.52 59.66 3.52 43.45 3.57 C41.75 3.57 40.06 3.56 38.37 3.56 C34.85 3.56 31.32 3.56 27.79 3.57 C23.29 3.58 18.79 3.58 14.29 3.56 C10.8 3.56 7.32 3.56 3.83 3.56 C2.17 3.57 0.51 3.56 -1.14 3.56 C-21.99 3.51 -21.99 3.51 -29.8 8.33 C-32.83 10.13 -35.76 11.55 -39.05 12.83 C-52.06 19.86 -63.4 31.44 -73.18 42.33 C-73.84 43.06 -74.5 43.8 -75.18 44.55 C-77.08 46.87 -78.55 49.25 -80.05 51.83 C-81.38 53.5 -82.71 55.17 -84.05 56.83 C-84.75 57.93 -85.45 59.02 -86.18 60.14 C-86.79 61.03 -87.41 61.92 -88.05 62.83 C-88.71 62.83 -89.37 62.83 -90.05 62.83 C-82.96 42.92 -62.38 23.97 -45.05 12.83 C-44.3 12.32 -43.55 11.81 -42.77 11.29 C-29.04 2.41 -16.04 -0.1 0 0 Z " fill="#93233A" transform="translate(362.05078125,269.16796875)"/>
<path d="M0 0 C0.33 0 0.66 0 1 0 C-0.33 18.48 -4.86 36.38 -11.96 53.49 C-12.68 55.23 -13.34 56.99 -13.95 58.77 C-16.54 65.35 -16.54 65.35 -20.49 67.11 C-23.56 67.78 -26.55 68.16 -29.69 68.44 C-31.78 68.68 -33.86 68.93 -35.95 69.18 C-36.97 69.3 -38 69.42 -39.06 69.54 C-41.84 69.97 -44.31 70.64 -46.97 71.53 C-52.83 73.42 -58.64 73.76 -64.75 74.12 C-65.92 74.2 -67.1 74.28 -68.31 74.36 C-76.75 74.91 -85.21 75.35 -93.67 75.66 C-97.6 75.81 -101.48 76.04 -105.39 76.51 C-112.12 77.19 -118.83 77.14 -125.58 77.13 C-126.97 77.13 -128.35 77.13 -129.74 77.14 C-132.63 77.14 -135.51 77.14 -138.4 77.13 C-142.09 77.12 -145.78 77.13 -149.46 77.13 C-152.32 77.14 -155.17 77.14 -158.03 77.13 C-159.39 77.13 -160.75 77.13 -162.11 77.14 C-164.01 77.14 -165.91 77.13 -167.81 77.13 C-168.89 77.13 -169.96 77.13 -171.07 77.13 C-173.83 77.01 -176.32 76.62 -179 76 C-179 75.67 -179 75.34 -179 75 C-178.14 74.99 -177.29 74.98 -176.41 74.98 C-168.17 74.9 -159.94 74.81 -151.71 74.71 C-147.49 74.66 -143.26 74.62 -139.03 74.58 C-120.43 74.4 -101.91 74.02 -83.36 72.68 C-76.22 72.16 -69.16 71.87 -62 72 C-62 71.01 -62 70.02 -62 69 C-60.78 68.94 -59.57 68.88 -58.32 68.82 C-56.73 68.73 -55.15 68.65 -53.56 68.56 C-52.76 68.52 -51.96 68.48 -51.13 68.44 C-45.11 68.11 -45.11 68.11 -44 67 C-42.49 66.7 -40.97 66.46 -39.45 66.25 C-38.52 66.11 -37.6 65.98 -36.64 65.85 C-35.67 65.71 -34.69 65.58 -33.69 65.44 C-32.72 65.3 -31.76 65.16 -30.77 65.02 C-26.78 64.46 -23.04 64 -19 64 C-18.86 63.41 -18.72 62.83 -18.58 62.22 C-17.14 56.68 -14.81 51.54 -12.38 46.38 C-10.61 42.57 -9.34 39.23 -9 35 C-8.34 35 -7.68 35 -7 35 C-7.01 34.52 -7.01 34.52 -7.06 32.06 C-7 29 -7 29 -6 28 C-5.63 25.67 -5.3 23.34 -5 21 C-4.34 21 -3.68 21 -3 21 C-3.04 19.93 -3.08 18.86 -3.12 17.75 C-3.14 12.09 -2.21 6.52 -1 1 C-0.67 0.67 -0.34 0.34 0 0 Z " fill="#4C2728" transform="translate(525,695)"/>
<path d="M0 0 C6.1 -0.15 11.5 0.26 17.45 1.61 C18.22 1.78 18.99 1.95 19.79 2.12 C21.41 2.47 23.04 2.83 24.66 3.2 C27.1 3.74 29.53 4.28 31.97 4.8 C40.44 6.66 48.85 8.68 57.21 10.98 C62.46 12.39 67.73 13.68 73 15 C73 45.03 73 75.06 73 106 C68.71 106 64.42 106 60 106 C55.9 109.24 53.83 111.75 51 116 C48.21 116.26 48.21 116.26 44.94 116.12 C42.96 116.05 40.98 116.01 39 116 C38.67 116.33 38.34 116.66 38 117 C36.62 117.09 35.23 117.12 33.85 117.11 C32.97 117.11 32.09 117.11 31.18 117.11 C30.22 117.11 29.26 117.1 28.28 117.1 C27.3 117.1 26.33 117.09 25.32 117.09 C22.19 117.09 19.07 117.08 15.94 117.06 C13.82 117.06 11.71 117.05 9.59 117.05 C4.39 117.04 -0.8 117.02 -6 117 C-6 116.67 -6 116.34 -6 116 C-5.6 115.99 -5.6 115.99 -3.59 115.94 C23.71 115.22 23.71 115.22 35.88 113.39 C38.74 113.03 41.32 113.02 44.19 113.19 C48 113 48 113 50.69 110.81 C51.45 109.88 52.21 108.96 53 108 C57.04 103.66 59.25 102.73 65.21 102.36 C66.3 102.29 67.38 102.21 68.5 102.14 C69.32 102.09 70.15 102.05 71 102 C71.03 95.08 71.04 88.15 71.05 81.23 C71.06 78.87 71.07 76.52 71.08 74.16 C71.09 70.78 71.09 67.39 71.1 64.01 C71.1 62.96 71.11 61.9 71.11 60.81 C71.11 60.32 71.11 60.32 71.11 57.84 C71.12 56.97 71.12 56.11 71.12 55.22 C71 53 71 53 70 50 C70.09 48.04 70.24 46.08 70.44 44.12 C70.85 39.43 71.05 34.83 71 30.12 C70.96 25.61 71.18 21.43 72 17 C70.89 16.88 69.78 16.77 68.64 16.65 C63.58 16.01 58.7 14.84 53.75 13.62 C52.82 13.4 51.89 13.17 50.93 12.94 C48.29 12.3 45.64 11.65 43 11 C41.84 10.72 40.68 10.44 39.49 10.14 C35.42 9.14 31.37 8.1 27.33 6.96 C20.66 5.09 14.31 3.55 7.37 3.27 C4.65 2.96 2.49 2.11 0 1 C0 0.67 0 0.34 0 0 Z " fill="#8F2439" transform="translate(544,433)"/>
<path d="M0 0 C2.43 1.58 3.63 3.15 5.29 5.49 C-3.57 12.33 -12.72 18.6 -22.08 24.74 C-24.72 26.47 -27.35 28.21 -29.98 29.95 C-30.57 30.33 -31.16 30.71 -31.76 31.11 C-35.65 33.68 -39.18 36.46 -42.71 39.49 C-43.37 39.16 -44.03 38.83 -44.71 38.49 C-20.95 12.22 -20.95 12.22 -9.02 3.37 C-8.46 2.94 -7.89 2.5 -7.31 2.06 C-4.63 0.17 -3.28 -0.62 0 0 Z " fill="#F2F1F0" transform="translate(782.70703125,534.5078125)"/>
<path d="M0 0 C0.99 0.33 1.98 0.66 3 1 C3.16 1.83 3.16 1.83 4 6 C-4.04 11.9 -12.22 17.54 -20.56 23 C-21.42 23.56 -22.28 24.13 -23.16 24.71 C-23.57 24.97 -23.57 24.97 -25.63 26.31 C-25.99 26.55 -25.99 26.55 -27.82 27.74 C-30.14 29.08 -32.49 30.06 -35 31 C-38 27.25 -38 27.25 -38 25 C-36.34 23.66 -36.34 23.66 -34 22.13 C-33.14 21.56 -32.28 20.99 -31.39 20.4 C-30.46 19.8 -29.53 19.19 -28.56 18.56 C-27.62 17.94 -26.67 17.32 -25.7 16.69 C-23.75 15.41 -21.8 14.14 -19.85 12.87 C-17.2 11.13 -14.56 9.37 -11.93 7.59 C-10.41 6.58 -8.89 5.57 -7.38 4.56 C-6.67 4.08 -5.97 3.61 -5.24 3.11 C-3.55 2 -1.78 0.99 0 0 Z " fill="#0A090A" transform="translate(778,579)"/>
<path d="M0 0 C0.16 0.33 0.16 0.33 1 2 C4.47 1.83 4.47 1.83 22 1 C22 1.66 22 2.32 22 3 C22.44 2.9 22.44 2.9 24.66 2.42 C28.14 1.98 30.11 2.32 33.44 3.31 C43.7 6.08 53.99 7.31 64.61 6.97 C67 7 67 7 70 8 C77.17 8.91 84.36 9.48 91.56 10.06 C92.67 10.15 93.77 10.24 94.91 10.34 C97.61 10.56 100.3 10.78 103 11 C103 11.33 103 11.66 103 12 C91.11 12.18 79.34 11.74 67.49 10.88 C64.74 10.69 61.99 10.51 59.24 10.33 C48.86 9.62 39.09 8.44 29.09 5.42 C24.08 4.41 18.8 4.73 13.7 4.7 C12.26 4.69 10.82 4.67 9.39 4.64 C-0.18 4.44 -8.9 5.41 -18.25 7.46 C-27.13 9.36 -36 10.04 -45.06 10.58 C-47.83 10.75 -50.6 10.94 -53.37 11.13 C-63.6 11.81 -73.75 12.18 -84 12 C-84 11.67 -84 11.34 -84 11 C-80.67 10.29 -77.41 9.79 -74.02 9.5 C-73.55 9.46 -73.55 9.46 -71.18 9.25 C-70.7 9.21 -70.7 9.21 -68.25 9 C-66.34 8.83 -64.43 8.67 -62.52 8.5 C-61.58 8.42 -60.65 8.34 -59.7 8.25 C-57.21 8.02 -54.74 7.74 -52.27 7.44 C-48.31 6.98 -44.43 6.93 -40.44 7 C-35.15 7.04 -30.22 6.75 -25 6 C-22.66 5.92 -20.34 5.95 -18 6 C-17.67 5.34 -17.34 4.68 -17 4 C-14.72 3.58 -12.43 3.26 -10.12 3 C-3.33 2.22 -3.33 2.22 0 0 Z " fill="#BA666A" transform="translate(375,320)"/>
<path d="M0 0 C7.68 -0.11 15.31 0.01 22.98 0.44 C23.78 0.48 24.59 0.53 25.42 0.57 C27.12 0.67 28.82 0.76 30.52 0.86 C48.39 1.83 66.23 2.2 84.12 2.19 C85.2 2.19 86.27 2.19 87.37 2.19 C97.97 2.19 108.53 2.07 119.1 1.35 C126.09 0.89 133.06 0.89 140.06 0.94 C141.32 0.94 142.58 0.95 143.88 0.95 C146.92 0.96 149.96 0.98 153 1 C152.67 1.66 152.34 2.32 152 3 C149.45 3.32 147 3.51 144.44 3.62 C143.75 3.66 143.05 3.7 142.34 3.74 C138.77 3.93 135.21 4.01 131.63 3.99 C128.51 4 126.03 4.38 123 5 C120.67 5.04 118.33 5.04 116 5 C115.01 5 114.02 5 113 5 C112.29 4.99 111.58 4.98 110.84 4.96 C110.07 4.96 109.3 4.95 108.5 4.94 C108.11 4.93 108.11 4.93 106.16 4.9 C104 5 104 5 101 6 C101 5.34 101 4.68 101 4 C97.7 4.66 94.4 5.32 91 6 C91 5.34 91 4.68 91 4 C90.01 4.35 89.02 4.7 88 5.06 C85.07 5.92 82.88 6.02 79.88 5.56 C76 5 76 5 73.5 5.5 C70.98 6 69.39 5.87 66.88 5.5 C63 5 63 5 60 6 C58.33 5.69 56.66 5.35 55 5 C53.27 4.96 51.54 4.96 49.81 5 C37.9 5.09 26.04 4.17 14.19 3 C13.77 2.96 13.77 2.96 11.64 2.75 C7.71 2.34 3.86 1.88 0 1 C0 0.67 0 0.34 0 0 Z " fill="#C16A70" transform="translate(305,776)"/>
<path d="M0 0 C3.91 -0.03 7.82 -0.04 11.73 -0.05 C13.7 -0.06 15.67 -0.08 17.64 -0.09 C25.48 -0.11 33.19 0.22 41 1 C40.38 8.85 39.4 16.61 38.22 24.39 C38.05 25.54 37.88 26.69 37.7 27.88 C37.16 31.52 36.61 35.17 36.06 38.81 C35.52 42.44 34.98 46.06 34.44 49.69 C34.09 52.02 33.74 54.35 33.39 56.69 C32.54 62.34 31.71 67.99 30.91 73.64 C29.81 81.4 28.59 89.14 27.38 96.88 C27.14 98.35 26.91 99.83 26.68 101.31 C26.12 104.87 25.56 108.44 25 112 C23.76 112.53 22.5 113.05 21.25 113.56 C20.55 113.85 19.86 114.14 19.14 114.44 C16.7 115.08 15.36 114.8 13 114 C13.99 114 14.98 114 16 114 C16 113.34 16 112.68 16 112 C16.97 111.71 17.94 111.42 18.94 111.12 C22 110 22 110 23 108 C23.2 106.34 23.36 104.67 23.5 103 C23.89 98.22 23.89 98.22 25 96 C25.2 93.84 25.37 91.67 25.5 89.5 C25.89 83.22 25.89 83.22 27 81 C27.28 79.25 27.51 77.49 27.72 75.73 C27.85 74.68 27.97 73.62 28.11 72.54 C28.17 71.98 28.17 71.98 28.5 69.19 C28.76 67.01 29.02 64.84 29.28 62.67 C29.4 61.7 29.51 60.73 29.63 59.74 C29.98 57.13 30.47 54.58 31 52 C31.27 49.63 31.5 47.26 31.72 44.89 C32 43 32 43 33 42 C33.16 40.46 33.28 38.92 33.38 37.38 C33.86 31.41 35.01 25.67 36.23 19.82 C37.35 14.24 38.19 8.63 39 3 C38.61 3.09 38.61 3.09 36.66 3.52 C33.19 4.15 30.56 3.45 27.21 2.48 C24.5 1.89 21.91 1.78 19.14 1.68 C18.03 1.64 16.91 1.6 15.76 1.56 C14.6 1.52 13.44 1.48 12.25 1.44 C11.66 1.42 11.66 1.42 8.69 1.31 C5.79 1.2 2.9 1.1 0 1 C0 0.67 0 0.34 0 0 Z " fill="#982E41" transform="translate(538,558)"/>
<path d="M0 0 C7.07 -0.2 13.55 -0.06 20.44 1.56 C24.47 2.25 28.46 2.09 32.53 1.97 C35 2 35 2 37 3 C38.83 3.21 40.67 3.37 42.51 3.5 C43.66 3.58 44.82 3.66 46.01 3.75 C47.22 3.83 48.44 3.91 49.69 4 C50.82 4.08 51.95 4.16 53.12 4.25 C76.54 5.89 99.96 6.25 123.42 6.53 C127.67 6.58 131.92 6.64 136.17 6.69 C144.45 6.8 152.72 6.9 161 7 C161 7.33 161 7.66 161 8 C147.37 9 133.79 9.2 120.12 9.19 C119.02 9.19 117.91 9.19 116.77 9.19 C78.08 9.14 39.17 7.78 1 1 C0.67 1.66 0.34 2.32 0 3 C0 2.01 0 1.02 0 0 Z " fill="#4A1F22" transform="translate(269,770)"/>
<path d="M0 0 C3.99 1.08 5.12 3.03 7.16 6.59 C8.03 10.75 7.35 12.25 5.22 15.96 C2.89 18.47 1.06 19.1 -2.34 19.34 C-5.74 19.1 -7.57 18.47 -9.9 15.96 C-12.03 12.25 -12.71 10.75 -11.84 6.59 C-8.76 1.21 -6.26 -0.44 0 0 Z " fill="#F6F6F6" transform="translate(357.83984375,503.4140625)"/>
<path d="M0 0 C1.98 0 3.96 0 6 0 C6 0.66 6 1.32 6 2 C5.34 2.33 5.34 2.33 2 4 C2.01 4.31 2.01 4.31 2.09 5.88 C3.12 28.06 3.12 50.21 3.07 72.4 C3.06 77.22 3.05 82.04 3.05 86.86 C3.04 96.24 3.02 105.62 3 115 C4.65 115.33 6.3 115.66 8 116 C8 116.33 8 116.66 8 117 C5.36 117 2.72 117 0 117 C0 78.39 0 39.78 0 0 Z " fill="#BC676D" transform="translate(538,432)"/>
<path d="M0 0 C2.9 -0.03 5.79 -0.05 8.69 -0.06 C9.1 -0.07 9.1 -0.07 11.16 -0.09 C15.28 -0.1 18.97 0.1 23 1 C26.22 1.22 29.43 1.38 32.65 1.52 C36 2 36 2 39.4 3.48 C44.05 5.44 48.32 5.74 53.3 6.08 C56.45 6.38 58.65 6.75 61.26 8.58 C63.58 11.81 65.14 15.16 66.69 18.81 C66.99 19.5 67.3 20.19 67.62 20.89 C69.52 25.29 70.53 29.23 71 34 C68.35 31.35 67.76 28.79 66.56 25.25 C64.99 20.62 63.19 16.36 61 12 C61 11.34 61 10.68 61 10 C50.92 8.4 40.9 6.83 30.7 6.18 C25.4 5.83 20.19 5.12 15 4 C14.54 3.91 14.54 3.91 12.19 3.44 C11.47 3.29 10.74 3.15 10 3 C12.53 5.8 14.2 7.46 18 8 C18 8.66 18 9.32 18 10 C18.66 10 19.32 10 20 10 C24.02 12.89 24.95 16.15 25.82 20.82 C26.06 23.75 25.54 25.5 24 28 C22.38 29.81 22.38 29.81 21 31 C20.34 30.67 19.68 30.34 19 30 C19.5 29.34 19.99 28.68 20.5 28 C22.35 24.31 22.98 21.05 22 17 C18.94 12.11 14.72 9.67 9.88 6.81 C8.43 5.95 6.99 5.08 5.55 4.21 C4.92 3.83 4.29 3.45 3.63 3.07 C2 2 2 2 0 0 Z " fill="#9F5659" transform="translate(445,338)"/>
<path d="M0 0 C4.29 0 8.58 0 13 0 C9.01 2 7.3 2.2 3 2 C3 3.21 3 4.43 3.01 5.68 C3.03 17.13 3.04 28.57 3.05 40.02 C3.06 45.91 3.06 51.79 3.08 57.68 C3.09 63.36 3.09 69.04 3.09 74.72 C3.1 76.88 3.1 79.05 3.11 81.22 C3.11 84.25 3.11 87.29 3.11 90.32 C3.12 91.22 3.12 92.11 3.12 93.03 C3.12 96.6 3.02 99.89 2.43 103.42 C2 106 2 106 3 109 C2.72 111.34 2.39 113.68 2 116 C1.34 116 0.68 116 0 116 C0 77.72 0 39.44 0 0 Z " fill="#BE696F" transform="translate(538,559)"/>
<path d="M0 0 C0.33 0 0.66 0 1 0 C1 38.61 1 77.22 1 117 C2.15 116.67 2.15 116.67 8 115 C10.44 115.38 10.44 115.38 12 116 C11.84 116.33 11.84 116.33 11 118 C7.37 118 3.74 118 0 118 C-1.2 115.6 -1.13 114.12 -1.13 111.45 C-1.13 110.49 -1.13 109.53 -1.14 108.54 C-1.13 108.01 -1.13 108.01 -1.13 105.34 C-1.13 104.23 -1.13 103.12 -1.13 101.98 C-1.14 98.3 -1.14 94.62 -1.13 90.94 C-1.13 88.39 -1.13 85.84 -1.14 83.29 C-1.14 77.95 -1.14 72.6 -1.13 67.25 C-1.12 61.07 -1.13 54.88 -1.13 48.7 C-1.14 42.75 -1.14 36.81 -1.13 30.86 C-1.13 28.33 -1.13 25.8 -1.14 23.26 C-1.14 19.73 -1.13 16.19 -1.13 12.66 C-1.13 11.6 -1.13 10.55 -1.14 9.46 C-1.13 8.5 -1.13 7.54 -1.13 6.55 C-1.13 6.14 -1.13 6.14 -1.13 4.02 C-1 2 -1 2 0 0 Z " fill="#492326" transform="translate(537,558)"/>
<path d="M0 0 C4 1.34 6.52 3.31 8.94 6.81 C10.59 11.77 10.63 15.36 8.75 20.25 C6.32 24.07 4.27 25.58 0 27 C-4.02 27.62 -7.54 27.88 -11.11 25.73 C-16.75 20.94 -16.75 20.94 -17.31 16.64 C-17.54 11.45 -17.6 7.95 -14.12 3.88 C-9.83 -0.46 -5.93 -0.69 0 0 Z M-9 4 C-11.88 6.88 -13.7 9.15 -15.06 13 C-14.98 17.15 -13.73 18.92 -11 22 C-7.03 23.9 -3.38 24.58 1 24 C2.88 22.12 2.88 22.12 4 20 C4 19.34 4 18.68 4 18 C4.99 17.67 5.98 17.34 7 17 C7.47 12.18 7.75 9.06 4.88 5 C0.12 1.69 -3.92 1 -9 4 Z " fill="#9A2E43" transform="translate(389,924)"/>
<path d="M0 0 C3.96 0 7.92 0 12 0 C8.99 3.01 6.18 2.6 2 3 C2 4.65 2 6.3 2 8 C2.66 8 3.32 8 4 8 C3.97 8.45 3.97 8.45 3.83 10.72 C3.84 16.46 5.37 21.95 6.69 27.5 C6.96 28.66 7.23 29.82 7.52 31.02 C9.56 39.54 11.89 47.8 15 56 C15.25 56.67 15.51 57.34 15.77 58.04 C16.56 60.13 17.37 62.22 18.19 64.31 C18.44 64.95 18.69 65.6 18.95 66.26 C20.05 68.99 20.89 70.89 23 73 C25.53 73.38 25.53 73.38 28.5 73.56 C33.81 73.9 33.81 73.9 36 75 C37.81 75.18 39.62 75.32 41.44 75.44 C46.57 75.82 51.49 76.56 56.53 77.6 C59.06 78.01 61.44 78.07 64 78 C64.33 78.66 64.66 79.32 65 80 C59.35 79.87 53.74 79.59 48.11 79.19 C45.99 79.06 43.87 78.98 41.74 78.93 C26.61 78.57 26.61 78.57 20 75 C15.06 69.52 13.48 62.21 11.79 55.19 C11.02 52.09 10.1 49.1 9.08 46.07 C6.03 36.88 3.52 27.61 1.56 18.12 C1.48 17.73 1.48 17.73 1.07 15.73 C0.05 10.42 -0.13 5.41 0 0 Z " fill="#AF5861" transform="translate(243,686)"/>
<path d="M0 0 C-4.51 3.73 -9.31 6.8 -14.26 9.9 C-17.14 12.11 -18.52 13.71 -20 17 C-20.29 19.46 -20.29 19.46 -20.19 21.81 C-20.16 22.6 -20.13 23.39 -20.11 24.21 C-20.09 24.5 -20.09 24.5 -20 26 C-22.95 23.35 -22.95 23.35 -23.38 20.19 C-22.72 14.59 -20.31 10.57 -16 7 C-14.03 5.94 -12.04 4.93 -10 4 C-10.17 3.83 -10.17 3.83 -11 3 C-13.15 3.06 -15.3 3.2 -17.44 3.38 C-18.02 3.42 -18.02 3.42 -21 3.65 C-24 4 -24 4 -26 5 C-27.89 5.21 -29.79 5.37 -31.69 5.5 C-36.16 5.85 -40.57 6.26 -45 7 C-45.41 7.05 -45.41 7.05 -47.47 7.3 C-52.03 7.97 -54.43 8.49 -57.94 11.62 C-59.87 14.78 -61.15 17.64 -62.32 21.12 C-63.22 23.62 -64.63 25.73 -66 28 C-66.71 29.98 -67.39 31.98 -68 34 C-69.32 30.04 -68.35 28.4 -66.94 24.5 C-66.53 23.36 -66.13 22.21 -65.71 21.03 C-65.45 20.41 -65.18 19.8 -64.91 19.16 C-64 17 -64 17 -63.15 14.19 C-61.82 10.72 -60.66 8.62 -58 6 C-52.03 3.5 -45.25 3.39 -38.88 2.88 C-37.12 2.7 -35.37 2.52 -33.62 2.33 C-29.48 1.9 -25.34 1.52 -21.19 1.18 C-19.2 1.02 -17.22 0.84 -15.23 0.67 C-10.13 0.22 -5.12 -0.12 0 0 Z " fill="#B15960" transform="translate(323,339)"/>
<path d="M0 0 C0.56 3.53 0.83 5.6 0 9 C-2.9 12.5 -6.48 15.14 -10 18 C-17.31 24.86 -23.82 32.12 -30 40 C-30.33 39.34 -30.66 38.68 -31 38 C-29.79 35.62 -28.53 33.39 -27.12 31.12 C-26.71 30.45 -26.3 29.78 -25.88 29.09 C-7.81 0 -7.81 0 0 0 Z " fill="#EFEDEC" transform="translate(760,529)"/>
<path d="M0 0 C0.55 0.23 1.1 0.46 1.66 0.69 C1.99 2.01 2.32 3.33 2.66 4.69 C-2.65 9.17 -8.26 13.08 -14.15 16.75 C-14.47 16.96 -14.47 16.96 -16.11 18.02 C-17.98 19.16 -17.98 19.16 -21.34 20.69 C-23.79 19.94 -23.79 19.94 -25.34 18.69 C-25.34 17.37 -25.34 16.05 -25.34 14.69 C-23.29 12.84 -23.29 12.84 -20.45 10.98 C-19.43 10.31 -18.41 9.65 -17.36 8.96 C-16.28 8.27 -15.2 7.58 -14.09 6.88 C-13.56 6.52 -13.56 6.52 -10.87 4.74 C-2.93 -0.39 -2.93 -0.39 0 0 Z " fill="#0B0B0B" transform="translate(771.3388671875,604.309814453125)"/>
<path d="M0 0 C0.33 0 0.66 0 1 0 C-0.33 18.48 -4.86 36.38 -11.96 53.49 C-12.68 55.23 -13.34 56.99 -13.95 58.77 C-15.49 62.68 -16.55 65.33 -20.49 67.14 C-23.56 67.86 -26.55 68.26 -29.69 68.56 C-30.73 68.7 -31.76 68.84 -32.83 68.98 C-35.89 69.37 -38.94 69.69 -42 70 C-42.46 70.05 -42.46 70.05 -44.8 70.31 C-49.09 70.76 -53.3 71.12 -57.62 71.06 C-58.46 71.05 -59.3 71.04 -60.16 71.04 C-60.77 71.02 -61.38 71.01 -62 71 C-62 70.34 -62 69.68 -62 69 C-60.78 68.94 -59.57 68.88 -58.32 68.82 C-56.73 68.73 -55.15 68.65 -53.56 68.56 C-52.76 68.52 -51.96 68.48 -51.13 68.44 C-45.11 68.11 -45.11 68.11 -44 67 C-42.49 66.7 -40.97 66.46 -39.45 66.25 C-38.52 66.11 -37.6 65.98 -36.64 65.85 C-36.15 65.78 -36.15 65.78 -33.69 65.44 C-32.72 65.3 -31.76 65.16 -30.77 65.02 C-26.78 64.46 -23.04 64 -19 64 C-18.86 63.41 -18.72 62.83 -18.58 62.22 C-17.14 56.68 -14.81 51.54 -12.38 46.38 C-10.61 42.57 -9.34 39.23 -9 35 C-8.34 35 -7.68 35 -7 35 C-7.02 34.03 -7.04 33.06 -7.06 32.06 C-7 29 -7 29 -6 28 C-5.63 25.67 -5.3 23.34 -5 21 C-4.34 21 -3.68 21 -3 21 C-3.04 19.93 -3.08 18.86 -3.12 17.75 C-3.14 12.09 -2.21 6.52 -1 1 C-0.67 0.67 -0.34 0.34 0 0 Z " fill="#B14F5D" transform="translate(525,695)"/>
<path d="M0 0 C2.38 3.57 2.22 5.06 2.16 9.29 C2.15 10.54 2.14 11.79 2.13 13.08 C2.12 13.74 2.12 13.74 2.06 17.06 C1.96 24.57 1.89 31.92 2.77 39.38 C3.28 45.13 3.14 50.92 3.12 56.69 C3.13 57.97 3.13 59.25 3.14 60.56 C3.14 61.81 3.13 63.05 3.13 64.32 C3.13 64.88 3.13 64.88 3.13 67.7 C3 71 3 71 2.49 74.33 C1.9 78.72 1.91 82.95 1.97 87.36 C1.99 89.15 2 90.95 2.01 92.74 C2.03 95.54 2.06 98.34 2.1 101.14 C2.13 103.86 2.14 106.58 2.16 109.3 C2.17 110.14 2.19 110.99 2.2 111.85 C2.21 113.9 2.11 115.95 2 118 C1.67 118.33 1.67 118.33 0 120 C0 80.4 0 40.8 0 0 Z " fill="#5B3B39" transform="translate(529,430)"/>
<path d="M0 0 C0.66 0.33 1.32 0.66 2 1 C2.63 3.29 2.63 3.29 3.12 6.06 C3.29 6.98 3.46 7.9 3.63 8.85 C3.75 9.56 3.88 10.27 4 11 C4.66 11 5.32 11 6 11 C8.79 20.62 11.29 30.09 12.38 40.06 C12.46 40.83 12.54 41.6 12.63 42.39 C13.14 47.72 13.14 47.72 12 50 C8.04 50 4.08 50 0 50 C0 49.34 0 48.68 0 48 C-0.7 48.21 -1.4 48.41 -2.12 48.62 C-5.6 49.08 -7.77 48.28 -11 47 C-11.33 47.66 -11.66 48.32 -12 49 C-12.78 48.98 -13.57 48.96 -14.38 48.94 C-17 49 -17 49 -19 50 C-18.34 48.68 -17.68 47.36 -17 46 C-14 45.95 -11 45.91 -8 45.88 C-7.16 45.86 -6.32 45.84 -5.46 45.82 C0.05 45.78 4.71 46.44 10 48 C9.86 47.4 9.71 46.8 9.57 46.19 C8.65 42.33 7.91 38.57 7.56 34.62 C7.13 30.26 6.04 26.25 4.83 22.04 C2.85 14.79 1.46 7.37 0 0 Z " fill="#844A4B" transform="translate(516,372)"/>
<path d="M0 0 C9.9 0 19.8 0 30 0 C30 0.33 30 0.66 30 1 C20.43 1 10.86 1 1 1 C1 36.31 1 71.62 1 108 C1.66 108.33 2.32 108.66 3 109 C3 111.64 3 114.28 3 117 C8.94 117.99 14.88 118.98 21 120 C21 120.33 21 120.66 21 121 C17.69 120.86 14.37 120.71 11.06 120.56 C10.12 120.52 9.17 120.48 8.2 120.44 C7.3 120.4 6.4 120.36 5.47 120.32 C4.64 120.28 3.81 120.24 2.95 120.21 C1 120 1 120 0 119 C-0.1 117.46 -0.12 115.91 -0.12 114.36 C-0.12 113.36 -0.12 112.36 -0.12 111.32 C-0.12 110.21 -0.12 109.11 -0.11 107.96 C-0.11 106.8 -0.11 105.64 -0.11 104.45 C-0.11 100.59 -0.11 96.73 -0.1 92.87 C-0.1 90.2 -0.09 87.54 -0.09 84.87 C-0.09 78.56 -0.08 72.24 -0.07 65.93 C-0.06 58.74 -0.06 51.55 -0.05 44.37 C-0.04 29.58 -0.02 14.79 0 0 Z " fill="#A77975" transform="translate(241,558)"/>
<path d="M0 0 C3.72 3.04 7.07 5.98 10.12 9.69 C17.4 18.21 26.47 25.04 36.05 30.76 C36.69 31.17 37.34 31.58 38 32 C38 32.33 38 32.66 38 33 C21.8 32.64 -1.3 28.14 -15 19 C-10.63 18.83 -7.8 18.86 -4 21 C-1.67 21.68 0.66 22.34 3 23 C3.71 23.32 4.41 23.63 5.14 23.96 C9.12 25.41 13.14 25.98 17.31 26.62 C18.15 26.76 18.98 26.89 19.85 27.03 C21.9 27.36 23.95 27.68 26 28 C21.25 23.12 21.25 23.12 19 22 C19 21.34 19 20.68 19 20 C18.44 19.75 17.89 19.5 17.31 19.25 C12.58 16.69 9.11 13.37 6 9 C6 8.34 6 7.68 6 7 C5.34 7 4.68 7 4 7 C0 2.53 0 2.53 0 0 Z " fill="#882437" transform="translate(278,802)"/>
<path d="M0 0 C1 1 1 1 1.12 3.01 C1.12 3.46 1.12 3.46 1.12 5.71 C1.12 6.73 1.12 7.75 1.12 8.8 C1.12 9.93 1.12 11.06 1.11 12.22 C1.11 13.4 1.11 14.58 1.11 15.8 C1.11 19.04 1.11 22.29 1.1 25.53 C1.1 28.92 1.09 32.31 1.09 35.7 C1.09 42.12 1.08 48.54 1.07 54.96 C1.06 62.27 1.06 69.58 1.05 76.89 C1.04 91.93 1.02 106.96 1 122 C-8.9 122 -18.8 122 -29 122 C-29 121.67 -29 121.34 -29 121 C-19.43 120.67 -9.86 120.34 0 120 C-0.17 116.69 -0.35 113.38 -0.53 109.98 C-1.4 89.85 -0.88 69.7 -0.61 49.57 C-0.53 44.19 -0.47 38.81 -0.4 33.43 C-0.28 22.96 -0.14 12.48 0 2 C-0.34 2.01 -0.34 2.01 -2.08 2.07 C-2.53 2.08 -2.53 2.08 -4.81 2.12 C-5.71 2.15 -6.6 2.17 -7.52 2.2 C-10 2 -10 2 -13 0 C-8.38 -1.3 -4.67 -0.78 0 0 Z " fill="#BC8A84" transform="translate(528,428)"/>
<path d="M0 0 C9.57 0 19.14 0 29 0 C29 39.27 29 78.54 29 119 C27.18 119.16 27.18 119.16 18 120 C20 118 20 118 22.5 117.62 C25 117 25 117 26.14 115.26 C27.1 112.73 27.24 110.88 27.21 108.17 C27.21 107.2 27.2 106.23 27.2 105.24 C27.19 104.71 27.19 104.71 27.16 102.04 C27.15 100.92 27.15 99.81 27.14 98.66 C27.13 96.25 27.11 93.83 27.09 91.41 C27.04 84.99 27.02 78.56 27 72.14 C27 71.81 27 71.81 27 70.14 C26.96 55.23 27.19 40.34 27.5 25.44 C27.52 24.25 27.55 23.06 27.57 21.83 C27.71 15.22 27.85 8.61 28 2 C23.38 1.84 23.38 1.84 0 1 C0 0.67 0 0.34 0 0 Z " fill="#CB9490" transform="translate(500,558)"/>
<path d="M0 0 C-0.81 0.3 -1.62 0.6 -2.46 0.92 C-5 3 -5 3 -5.48 4.84 C-5.66 7.35 -5.68 9.82 -5.66 12.34 C-5.67 13.29 -5.68 14.25 -5.69 15.23 C-5.72 18.4 -5.71 21.56 -5.71 24.73 C-5.72 26.92 -5.74 29.12 -5.75 31.31 C-5.79 37.08 -5.8 42.86 -5.81 48.64 C-5.82 55.56 -5.87 62.49 -5.91 69.42 C-5.97 79.95 -5.98 90.47 -6 101 C15.45 101 36.9 101 59 101 C59 101.33 59 101.66 59 102 C37.22 102 15.44 102 -7 102 C-7 68.34 -7 34.68 -7 0 C-3.87 -1.04 -3.01 -0.93 0 0 Z " fill="#641725" transform="translate(160,448)"/>
<path d="M0 0 C-2.68 1.79 -5.03 2.93 -8 4.12 C-8.87 4.48 -9.73 4.83 -10.62 5.2 C-13 6 -13 6 -16 6 C-15.34 5.01 -14.68 4.02 -14 3 C-20.23 3.45 -26.44 3.9 -32.63 4.75 C-36.86 5.2 -41.12 5.39 -45.37 5.61 C-48.7 5.79 -51.8 6.06 -55 7 C-62.42 8.37 -69.52 7.68 -77 7 C-77 6.67 -77 6.34 -77 6 C-18.5 -0.54 -18.5 -0.54 0 0 Z " fill="#582C2D" transform="translate(346,329)"/>
<path d="M0 0 C10.73 16.09 13.07 42.2 12 61 C9.36 61 6.72 61 4 61 C3.49 57.61 3 54.21 2.5 50.81 C2.36 49.85 2.21 48.89 2.07 47.9 C1.93 46.97 1.8 46.04 1.66 45.08 C1.59 44.66 1.59 44.66 1.28 42.5 C1 39.98 0.95 37.53 1 35 C3.37 37.37 3.4 38.33 3.85 41.57 C3.92 42.02 3.92 42.02 4.24 44.29 C4.37 45.22 4.49 46.16 4.62 47.12 C4.76 48.07 4.89 49.01 5.03 49.99 C5.36 52.32 5.68 54.66 6 57 C6.99 57.33 7.98 57.66 9 58 C10 57 10 57 10.13 54.97 C10.13 54.15 10.13 53.34 10.12 52.5 C10.13 51.69 10.13 50.87 10.13 50.03 C10 48 10 48 9 47 C8.79 45.53 8.63 44.05 8.5 42.56 C8.11 38.22 8.11 38.22 7 36 C6.93 34.13 6.92 32.25 6.94 30.38 C6.95 29.37 6.96 28.37 6.96 27.34 C6.97 26.95 6.97 26.95 7 25 C6.34 25 5.68 25 5 25 C3.74 19.93 2.73 15.27 3 10 C2.34 10 1.68 10 1 10 C0.67 6.7 0.34 3.4 0 0 Z " fill="#912A3D" transform="translate(397,965)"/>
<path d="M0 0 C9.56 -0.26 18.99 0.54 28.5 1.38 C30.11 1.51 31.72 1.65 33.33 1.79 C44.23 2.72 55.12 3.75 66 5 C66 5.33 66 5.66 66 6 C52.82 6.21 40.02 6.3 27 4 C25.88 3.81 24.76 3.63 23.6 3.43 C22.74 3.29 21.88 3.15 21 3 C21.33 4.98 21.66 6.96 22 9 C17.15 7.43 12.39 5.68 7.62 3.88 C7.26 3.74 7.26 3.74 5.39 3.04 C3.6 2.36 1.8 1.68 0 1 C0 0.67 0 0.34 0 0 Z " fill="#562F2E" transform="translate(423,329)"/>
<path d="M0 0 C9.22 1.37 18.21 3.39 27.25 5.62 C28.59 5.95 29.93 6.28 31.28 6.61 C34.52 7.4 37.76 8.2 41 9 C41 9.33 41 9.66 41 10 C38.86 9.76 36.71 9.52 34.57 9.28 C32.95 9.1 31.33 8.95 29.71 8.82 C25.01 8.41 20.98 7.43 16.55 5.83 C11.47 4.18 6.22 3.14 1 2 C1.34 9.29 2.53 16.4 3.88 23.56 C3.96 24 3.96 24 4.36 26.21 C6.66 38.1 10.65 49.16 15.56 60.19 C17.44 64.43 19.31 68.67 21 73 C18 72 18 72 16.91 70.21 C16.58 69.44 16.25 68.67 15.91 67.87 C15.73 67.44 15.73 67.44 14.79 65.26 C14.41 64.33 14.02 63.4 13.62 62.44 C13.23 61.48 12.83 60.53 12.42 59.54 C4.6 40.55 -1.13 20.7 0 0 Z " fill="#852236" transform="translate(154,668)"/>
<path d="M0 0 C0 0.33 0 0.66 0 1 C-7.92 1.99 -15.84 2.98 -24 4 C-24 6.64 -24 9.28 -24 12 C-24.59 16.81 -25.52 21.56 -26.44 26.31 C-26.57 26.99 -26.69 27.66 -26.83 28.35 C-30.07 45.08 -35.03 61.43 -42 77 C-43.52 73.1 -42.39 70.81 -40.81 67.06 C-33.47 48.8 -29.39 29.58 -26.26 10.2 C-26.1 9.27 -25.95 8.35 -25.8 7.39 C-25.67 6.57 -25.54 5.74 -25.4 4.89 C-25 3 -25 3 -24 2 C-16.1 -0.36 -8.17 -0.21 0 0 Z " fill="#3F0D14" transform="translate(561,680)"/>
</svg>
